<svg width="17" height="17" viewBox="0 0 17 17" fill="none" xmlns="http://www.w3.org/2000/svg">
<path fill-rule="evenodd" clip-rule="evenodd" d="M9.118 9.63216C7.51737 9.63216 6.20143 8.44909 6.04327 6.93703C6.03061 6.8358 6.03061 6.72825 6.03061 6.62702C6.03061 4.96945 7.40981 3.62821 9.12433 3.62821C10.8325 3.62821 12.218 4.96945 12.218 6.62702C12.218 7.24703 12.0219 7.82908 11.6866 8.3099C11.1299 9.10705 10.1872 9.63216 9.118 9.63216ZM9.12432 0.629395C5.70795 0.629395 2.93057 3.3182 2.93057 6.62702C2.93057 8.4997 3.86691 10.714 5.70163 13.2067C7.03022 15.0035 8.33983 16.2814 8.39044 16.3384C8.59289 16.5282 8.85861 16.6294 9.12432 16.6294C9.38372 16.6294 9.64943 16.5345 9.85189 16.3384C9.90882 16.2814 11.2184 15.0035 12.5407 13.2067C14.3817 10.714 15.3118 8.4997 15.3118 6.62702C15.3118 3.3182 12.5344 0.629395 9.12432 0.629395Z" fill="white"/>
<mask id="mask0_317_645" style="mask-type:luminance" maskUnits="userSpaceOnUse" x="2" y="0" width="14" height="17">
<path fill-rule="evenodd" clip-rule="evenodd" d="M9.118 9.63216C7.51737 9.63216 6.20143 8.44909 6.04327 6.93703C6.03061 6.8358 6.03061 6.72825 6.03061 6.62702C6.03061 4.96945 7.40981 3.62821 9.12433 3.62821C10.8325 3.62821 12.218 4.96945 12.218 6.62702C12.218 7.24703 12.0219 7.82908 11.6866 8.3099C11.1299 9.10705 10.1872 9.63216 9.118 9.63216ZM9.12432 0.629395C5.70795 0.629395 2.93057 3.3182 2.93057 6.62702C2.93057 8.4997 3.86691 10.714 5.70163 13.2067C7.03022 15.0035 8.33983 16.2814 8.39044 16.3384C8.59289 16.5282 8.85861 16.6294 9.12432 16.6294C9.38372 16.6294 9.64943 16.5345 9.85189 16.3384C9.90882 16.2814 11.2184 15.0035 12.5407 13.2067C14.3817 10.714 15.3118 8.4997 15.3118 6.62702C15.3118 3.3182 12.5344 0.629395 9.12432 0.629395Z" fill="white"/>
</mask>
<g mask="url(#mask0_317_645)">
</g>
</svg>
