<svg width="17" height="17" viewBox="0 0 17 17" fill="none" xmlns="http://www.w3.org/2000/svg">
<path fill-rule="evenodd" clip-rule="evenodd" d="M9.118 9.63228C7.51737 9.63228 6.20143 8.44921 6.04327 6.93715C6.03061 6.83592 6.03061 6.72837 6.03061 6.62714C6.03061 4.96957 7.40981 3.62833 9.12433 3.62833C10.8325 3.62833 12.218 4.96957 12.218 6.62714C12.218 7.24715 12.0219 7.8292 11.6866 8.31002C11.1299 9.10718 10.1872 9.63228 9.118 9.63228ZM9.12432 0.629517C5.70795 0.629517 2.93057 3.31833 2.93057 6.62714C2.93057 8.49982 3.86691 10.7141 5.70163 13.2068C7.03022 15.0036 8.33983 16.2816 8.39044 16.3385C8.59289 16.5283 8.85861 16.6295 9.12432 16.6295C9.38372 16.6295 9.64943 16.5346 9.85189 16.3385C9.90882 16.2816 11.2184 15.0036 12.5407 13.2068C14.3817 10.7141 15.3118 8.49982 15.3118 6.62714C15.3118 3.31833 12.5344 0.629517 9.12432 0.629517Z" fill="white"/>
<mask id="mask0_301_7129" style="mask-type:luminance" maskUnits="userSpaceOnUse" x="2" y="0" width="14" height="17">
<path fill-rule="evenodd" clip-rule="evenodd" d="M9.118 9.63228C7.51737 9.63228 6.20143 8.44921 6.04327 6.93715C6.03061 6.83592 6.03061 6.72837 6.03061 6.62714C6.03061 4.96957 7.40981 3.62833 9.12433 3.62833C10.8325 3.62833 12.218 4.96957 12.218 6.62714C12.218 7.24715 12.0219 7.8292 11.6866 8.31002C11.1299 9.10718 10.1872 9.63228 9.118 9.63228ZM9.12432 0.629517C5.70795 0.629517 2.93057 3.31833 2.93057 6.62714C2.93057 8.49982 3.86691 10.7141 5.70163 13.2068C7.03022 15.0036 8.33983 16.2816 8.39044 16.3385C8.59289 16.5283 8.85861 16.6295 9.12432 16.6295C9.38372 16.6295 9.64943 16.5346 9.85189 16.3385C9.90882 16.2816 11.2184 15.0036 12.5407 13.2068C14.3817 10.7141 15.3118 8.49982 15.3118 6.62714C15.3118 3.31833 12.5344 0.629517 9.12432 0.629517Z" fill="white"/>
</mask>
<g mask="url(#mask0_301_7129)">
</g>
</svg>
