<svg width="17" height="16" viewBox="0 0 17 16" fill="none" xmlns="http://www.w3.org/2000/svg">
<path fill-rule="evenodd" clip-rule="evenodd" d="M8.68743 9.00277C7.08679 9.00277 5.77086 7.81969 5.61269 6.30763C5.60004 6.20641 5.60004 6.09885 5.60004 5.99763C5.60004 4.34006 6.97924 2.99881 8.69375 2.99881C10.4019 2.99881 11.7875 4.34006 11.7875 5.99763C11.7875 6.61764 11.5913 7.19968 11.256 7.68051C10.6993 8.47766 9.75662 9.00277 8.68743 9.00277ZM8.69375 0C5.27738 0 2.5 2.68881 2.5 5.99763C2.5 7.8703 3.43634 10.0846 5.27106 12.5773C6.59964 14.3741 7.90925 15.652 7.95987 15.709C8.16232 15.8988 8.42803 16 8.69375 16C8.95314 16 9.21886 15.9051 9.42131 15.709C9.47825 15.652 10.7879 14.3741 12.1101 12.5773C13.9512 10.0846 14.8812 7.8703 14.8812 5.99763C14.8812 2.68881 12.1038 0 8.69375 0Z" fill="white"/>
<mask id="mask0_301_4416" style="mask-type:luminance" maskUnits="userSpaceOnUse" x="2" y="0" width="13" height="16">
<path fill-rule="evenodd" clip-rule="evenodd" d="M8.68743 9.00277C7.08679 9.00277 5.77086 7.81969 5.61269 6.30763C5.60004 6.20641 5.60004 6.09885 5.60004 5.99763C5.60004 4.34006 6.97924 2.99881 8.69375 2.99881C10.4019 2.99881 11.7875 4.34006 11.7875 5.99763C11.7875 6.61764 11.5913 7.19968 11.256 7.68051C10.6993 8.47766 9.75662 9.00277 8.68743 9.00277ZM8.69375 0C5.27738 0 2.5 2.68881 2.5 5.99763C2.5 7.8703 3.43634 10.0846 5.27106 12.5773C6.59964 14.3741 7.90925 15.652 7.95987 15.709C8.16232 15.8988 8.42803 16 8.69375 16C8.95314 16 9.21886 15.9051 9.42131 15.709C9.47825 15.652 10.7879 14.3741 12.1101 12.5773C13.9512 10.0846 14.8812 7.8703 14.8812 5.99763C14.8812 2.68881 12.1038 0 8.69375 0Z" fill="white"/>
</mask>
<g mask="url(#mask0_301_4416)">
</g>
</svg>
