<svg width="17" height="17" viewBox="0 0 17 17" fill="none" xmlns="http://www.w3.org/2000/svg">
<path fill-rule="evenodd" clip-rule="evenodd" d="M9.11797 9.63228C7.51734 9.63228 6.2014 8.44921 6.04323 6.93715C6.03058 6.83592 6.03058 6.72837 6.03058 6.62714C6.03058 4.96957 7.40978 3.62833 9.12429 3.62833C10.8325 3.62833 12.218 4.96957 12.218 6.62714C12.218 7.24715 12.0219 7.8292 11.6866 8.31002C11.1298 9.10718 10.1872 9.63228 9.11797 9.63228ZM9.12429 0.629517C5.70792 0.629517 2.93054 3.31833 2.93054 6.62714C2.93054 8.49982 3.86688 10.7141 5.7016 13.2068C7.03019 15.0036 8.33979 16.2816 8.39041 16.3385C8.59286 16.5283 8.85858 16.6295 9.12429 16.6295C9.38369 16.6295 9.6494 16.5346 9.85185 16.3385C9.90879 16.2816 11.2184 15.0036 12.5407 13.2068C14.3817 10.7141 15.3117 8.49982 15.3117 6.62714C15.3117 3.31833 12.5343 0.629517 9.12429 0.629517Z" fill="white"/>
<mask id="mask0_310_8077" style="mask-type:luminance" maskUnits="userSpaceOnUse" x="2" y="0" width="14" height="17">
<path fill-rule="evenodd" clip-rule="evenodd" d="M9.11797 9.63228C7.51734 9.63228 6.2014 8.44921 6.04323 6.93715C6.03058 6.83592 6.03058 6.72837 6.03058 6.62714C6.03058 4.96957 7.40978 3.62833 9.12429 3.62833C10.8325 3.62833 12.218 4.96957 12.218 6.62714C12.218 7.24715 12.0219 7.8292 11.6866 8.31002C11.1298 9.10718 10.1872 9.63228 9.11797 9.63228ZM9.12429 0.629517C5.70792 0.629517 2.93054 3.31833 2.93054 6.62714C2.93054 8.49982 3.86688 10.7141 5.7016 13.2068C7.03019 15.0036 8.33979 16.2816 8.39041 16.3385C8.59286 16.5283 8.85858 16.6295 9.12429 16.6295C9.38369 16.6295 9.6494 16.5346 9.85185 16.3385C9.90879 16.2816 11.2184 15.0036 12.5407 13.2068C14.3817 10.7141 15.3117 8.49982 15.3117 6.62714C15.3117 3.31833 12.5343 0.629517 9.12429 0.629517Z" fill="white"/>
</mask>
<g mask="url(#mask0_310_8077)">
</g>
</svg>
