<svg width="29" height="27" viewBox="0 0 29 27" fill="none" xmlns="http://www.w3.org/2000/svg">
<path fill-rule="evenodd" clip-rule="evenodd" d="M8.78461 1.16526L11.7514 3.08414C11.8184 3.12739 11.8946 3.14805 11.9701 3.14805C12.0928 3.14805 12.2136 3.09318 12.2885 2.99087C12.4095 2.82562 12.3649 2.59954 12.1893 2.48593L9.22246 0.567049C9.04653 0.453442 8.80606 0.495076 8.6854 0.660322C8.56439 0.825568 8.60902 1.05165 8.78461 1.16526ZM8.02196 2.64842L10.9891 4.56731C11.056 4.61056 11.1323 4.63137 11.2078 4.63137C11.3305 4.63137 11.4513 4.57634 11.5262 4.47403C11.6472 4.30879 11.6026 4.0827 11.427 3.9691L8.45981 2.05005C8.28405 1.93628 8.04358 1.9784 7.92275 2.14349C7.80174 2.30873 7.84637 2.53465 8.02196 2.64842ZM27.2249 16.0302C25.1803 12.8965 23.1277 9.58461 22.6126 8.75047C21.8311 10.2167 19.2566 14.5438 16.3676 14.801C13.1363 15.2806 10.7743 13.8061 9.99095 12.5876C9.23625 11.4139 10.5665 10.0929 10.5665 10.0929L12.7424 6.7956L13.2152 6.02859C12.1363 5.64258 11.1137 5.4441 10.1681 5.4441C6.30548 5.4441 4.45107 8.70722 3.90268 10.7544C2.00519 11.3991 1.16965 12.0651 1.07524 12.1438C0.904289 12.2857 0.809028 12.4914 0.814692 12.7057C0.820528 12.9202 0.926602 13.1211 1.10477 13.255C4.1598 15.5504 17.9165 24.631 18.6477 25.1134C19.7918 25.924 21.1061 26.3522 22.4488 26.3522C24.7689 26.3522 27.1307 25.0219 28.1921 23.117C29.7123 20.389 28.0222 17.2521 27.2249 16.0302ZM24.1845 19.5561C24.02 19.5119 23.8506 19.4893 23.6807 19.4893C22.8697 19.4893 22.1473 20.0023 21.9241 20.7367C21.6474 21.6473 22.2106 22.6004 23.18 22.8613C23.3441 22.9054 23.5132 22.9277 23.6824 22.9277H23.6826C24.4943 22.9277 25.2169 22.4148 25.4402 21.6801C25.5741 21.2391 25.5173 20.7751 25.28 20.3738C25.0428 19.9723 24.6536 19.6818 24.1845 19.5561ZM19.5521 10.6077C19.8729 11.2243 19.6556 11.6055 19.4136 11.8166C19.1625 12.0099 18.8332 12.1035 18.5217 12.0628C18.1585 12.0155 17.8561 11.7948 17.647 11.4241C16.7418 9.81916 15.717 8.0689 15.6996 8.03907L15.6994 8.03881L15.295 8.24828C15.3041 8.26377 16.1131 9.64528 16.9284 11.0791L15.0829 13.7172C12.8184 13.5408 11.0584 12.3026 10.8913 11.8277C11.1446 11.4145 11.3616 11.0588 11.552 10.7469L11.5521 10.7468C12.3696 9.40723 12.6962 8.8721 13.2994 8.03494L13.3431 7.97422L13.3431 7.97418C13.4604 7.81116 13.5826 7.64136 13.7118 7.46045C14.4174 6.49689 15.2032 5.97856 15.9311 6.00809C16.5276 6.02891 17.0875 6.41443 17.4677 7.0659L17.4733 7.07524L17.4795 7.08558C18.2826 8.38012 18.7751 9.18246 19.5521 10.6077ZM16.2516 2.19563C15.34 2.19563 14.5647 2.86581 14.4865 3.72141C14.4458 4.16599 14.5913 4.59847 14.8967 4.93961C15.2019 5.28092 15.6303 5.48973 16.1026 5.52798C17.0798 5.60737 17.9409 4.91218 18.024 4.00817C18.1081 3.09125 17.3827 2.28099 16.407 2.20192C16.3551 2.19756 16.3031 2.19563 16.2516 2.19563Z" fill="#0368D9"/>
</svg>
