<svg width="29" height="26" viewBox="0 0 29 26" fill="none" xmlns="http://www.w3.org/2000/svg">
<path fill-rule="evenodd" clip-rule="evenodd" d="M8.68317 0.682959L11.65 2.60185C11.7169 2.64509 11.7931 2.66575 11.8686 2.66575C11.9914 2.66575 12.1122 2.61088 12.187 2.50857C12.308 2.34333 12.2634 2.11724 12.0878 2.00364L9.12102 0.0847489C8.94509 -0.0288577 8.70462 0.0127765 8.58396 0.178023C8.46295 0.343269 8.50758 0.569352 8.68317 0.682959ZM7.92051 2.16612L10.8877 4.08501C10.9546 4.12826 11.0308 4.14907 11.1063 4.14907C11.2291 4.14907 11.3499 4.09404 11.4247 3.99173C11.5457 3.82649 11.5011 3.6004 11.3255 3.4868L8.35837 1.56775C8.18261 1.45398 7.94214 1.4961 7.82131 1.66119C7.7003 1.82643 7.74493 2.05235 7.92051 2.16612ZM27.1234 15.5479C25.0789 12.4142 23.0262 9.1023 22.5111 8.26817C21.7296 9.7344 19.1552 14.0615 16.2661 14.3187C13.0348 14.7983 10.6729 13.3238 9.88951 12.1053C9.13481 10.9316 10.465 9.61063 10.465 9.61063L12.6409 6.31329L13.1138 5.54629C12.0349 5.16028 11.0122 4.9618 10.0666 4.9618C6.20404 4.9618 4.34963 8.22492 3.80124 10.2721C1.90375 10.9168 1.0682 11.5828 0.973802 11.6615C0.802848 11.8034 0.707588 12.0091 0.713252 12.2234C0.719087 12.4379 0.825161 12.6388 1.00332 12.7727C4.05836 15.0681 17.815 24.1487 18.5462 24.6311C19.6904 25.4417 21.0046 25.8699 22.3474 25.8699C24.6674 25.8699 27.0292 24.5396 28.0906 22.6347C29.6109 19.9067 27.9207 16.7698 27.1234 15.5479ZM24.083 19.0738C23.9186 19.0296 23.7492 19.007 23.5793 19.007C22.7683 19.007 22.0458 19.52 21.8227 20.2544C21.546 21.165 22.1092 22.1181 23.0786 22.379C23.2427 22.4231 23.4117 22.4454 23.581 22.4454H23.5811C24.3928 22.4454 25.1154 21.9325 25.3387 21.1978C25.4726 20.7568 25.4158 20.2928 25.1786 19.8915C24.9414 19.49 24.5521 19.1995 24.083 19.0738ZM19.4506 10.1254C19.7714 10.742 19.5541 11.1232 19.3121 11.3343C19.061 11.5276 18.7318 11.6212 18.4203 11.5805C18.0571 11.5332 17.7547 11.3125 17.5456 10.9418C16.639 9.33442 15.6125 7.58128 15.5981 7.55664L15.5981 7.55662L15.598 7.55651L15.1936 7.76598C15.2027 7.78147 16.0116 9.16298 16.8269 10.5968L14.9815 13.2349C12.717 13.0585 10.957 11.8203 10.7898 11.3454C11.0432 10.9321 11.2602 10.5765 11.4506 10.2645C12.2681 8.92493 12.5947 8.3898 13.1979 7.55264L13.2411 7.49269L13.2413 7.49235C13.3587 7.32919 13.481 7.15923 13.6104 6.97815C14.316 6.01459 15.1018 5.49626 15.8297 5.5258C16.4262 5.54661 16.986 5.93213 17.3662 6.5836L17.373 6.59476L17.3781 6.60328C18.1812 7.89782 18.6736 8.70016 19.4506 10.1254ZM16.1502 1.71333C15.2386 1.71333 14.4633 2.38351 14.385 3.23911C14.3443 3.68369 14.4899 4.11617 14.7952 4.45731C15.1004 4.79862 15.5288 5.00743 16.0012 5.04568C16.9783 5.12507 17.8395 4.42988 17.9225 3.52587C18.0066 2.60895 17.2813 1.79869 16.3055 1.71962C16.2537 1.71526 16.2017 1.71333 16.1502 1.71333Z" fill="#0368D9"/>
</svg>
