<svg width="29" height="27" viewBox="0 0 29 27" fill="none" xmlns="http://www.w3.org/2000/svg">
<path fill-rule="evenodd" clip-rule="evenodd" d="M8.78456 1.16526L11.7514 3.08414C11.8183 3.12739 11.8945 3.14805 11.97 3.14805C12.0928 3.14805 12.2136 3.09318 12.2884 2.99087C12.4094 2.82562 12.3648 2.59954 12.1892 2.48593L9.22242 0.567049C9.04648 0.453442 8.80602 0.495076 8.68535 0.660322C8.56435 0.825568 8.60897 1.05165 8.78456 1.16526ZM8.02191 2.64842L10.9891 4.56731C11.056 4.61056 11.1322 4.63137 11.2077 4.63137C11.3305 4.63137 11.4513 4.57634 11.5261 4.47403C11.6471 4.30879 11.6025 4.0827 11.4269 3.9691L8.45976 2.05005C8.284 1.93628 8.04354 1.9784 7.9227 2.14349C7.80169 2.30873 7.84632 2.53465 8.02191 2.64842ZM27.2248 16.0302C25.1803 12.8965 23.1276 9.58461 22.6125 8.75047C21.831 10.2167 19.2566 14.5438 16.3675 14.801C13.1362 15.2806 10.7743 13.8061 9.99091 12.5876C9.2362 11.4139 10.5664 10.0929 10.5664 10.0929L12.7423 6.7956L13.2152 6.02859C12.1362 5.64258 11.1136 5.4441 10.168 5.4441C6.30544 5.4441 4.45103 8.70722 3.90264 10.7544C2.00515 11.3991 1.1696 12.0651 1.0752 12.1438C0.904243 12.2857 0.808982 12.4914 0.814646 12.7057C0.820482 12.9202 0.926556 13.1211 1.10472 13.255C4.15975 15.5504 17.9164 24.631 18.6476 25.1134C19.7918 25.924 21.106 26.3522 22.4488 26.3522C24.7688 26.3522 27.1306 25.0219 28.192 23.117C29.7123 20.389 28.0221 17.2521 27.2248 16.0302ZM24.1844 19.5561C24.02 19.5119 23.8506 19.4893 23.6807 19.4893C22.8696 19.4893 22.1472 20.0023 21.9241 20.7367C21.6474 21.6473 22.2105 22.6004 23.18 22.8613C23.3441 22.9054 23.5131 22.9277 23.6824 22.9277H23.6825C24.4942 22.9277 25.2168 22.4148 25.4401 21.6801C25.574 21.2391 25.5172 20.7751 25.28 20.3738C25.0428 19.9723 24.6535 19.6818 24.1844 19.5561ZM19.552 10.6077C19.8728 11.2243 19.6555 11.6055 19.4135 11.8166C19.1624 12.0099 18.8332 12.1035 18.5217 12.0628C18.1585 12.0155 17.8561 11.7948 17.647 11.4241C16.7406 9.81716 15.7144 8.06454 15.6995 8.03896L15.6994 8.03881L15.295 8.24828C15.3041 8.26377 16.113 9.64528 16.9283 11.0791L15.0829 13.7172C12.8184 13.5408 11.0584 12.3026 10.8912 11.8277C11.1445 11.4145 11.3615 11.059 11.5519 10.747L11.552 10.7468L11.5521 10.7467C12.3695 9.40721 12.6961 8.87209 13.2993 8.03494L13.343 7.97422L13.343 7.97418C13.4604 7.81116 13.5825 7.64136 13.7118 7.46045C14.4174 6.49689 15.2032 5.97856 15.9311 6.00809C16.5276 6.02891 17.0874 6.41443 17.4676 7.0659L17.4742 7.07677L17.4795 7.08558C18.2826 8.38012 18.775 9.18246 19.552 10.6077ZM16.2516 2.19563C15.34 2.19563 14.5647 2.86581 14.4864 3.72141C14.4457 4.16599 14.5913 4.59847 14.8966 4.93961C15.2018 5.28092 15.6302 5.48973 16.1026 5.52798C17.0797 5.60737 17.9409 4.91218 18.0239 4.00817C18.108 3.09125 17.3827 2.28099 16.4069 2.20192C16.3551 2.19756 16.3031 2.19563 16.2516 2.19563Z" fill="#0368D9"/>
</svg>
