<svg width="29" height="27" viewBox="0 0 29 27" fill="none" xmlns="http://www.w3.org/2000/svg">
<path fill-rule="evenodd" clip-rule="evenodd" d="M8.71844 0.924658L11.6853 2.84354C11.7522 2.88679 11.8284 2.90745 11.9039 2.90745C12.0267 2.90745 12.1475 2.85258 12.2223 2.75027C12.3433 2.58502 12.2987 2.35894 12.1231 2.24533L9.1563 0.326448C8.98037 0.212842 8.7399 0.254476 8.61924 0.419722C8.49823 0.584968 8.54286 0.811051 8.71844 0.924658ZM7.95579 2.40782L10.9229 4.32671C10.9899 4.36996 11.0661 4.39077 11.1416 4.39077C11.2643 4.39077 11.3852 4.33574 11.46 4.23343C11.581 4.06819 11.5364 3.8421 11.3608 3.7285L8.39365 1.80945C8.21789 1.69568 7.97742 1.7378 7.85658 1.90288C7.73558 2.06813 7.7802 2.29405 7.95579 2.40782ZM27.1587 15.7896C25.1141 12.6559 23.0615 9.344 22.5464 8.50987C21.7649 9.9761 19.1905 14.3032 16.3014 14.5604C13.0701 15.04 10.7082 13.5655 9.92479 12.347C9.17009 11.1733 10.5003 9.85233 10.5003 9.85233L12.6762 6.55499L13.1491 5.78799C12.0701 5.40198 11.0475 5.2035 10.1019 5.2035C6.23932 5.2035 4.38491 8.46662 3.83652 10.5138C1.93903 11.1585 1.10348 11.8245 1.00908 11.9032C0.838127 12.0451 0.742866 12.2508 0.74853 12.4651C0.754366 12.6796 0.86044 12.8805 1.0386 13.0144C4.09364 15.3098 17.8503 24.3904 18.5815 24.8728C19.7257 25.6833 21.0399 26.1116 22.3827 26.1116C24.7027 26.1116 27.0645 24.7813 28.1259 22.8764C29.6461 20.1484 27.956 17.0115 27.1587 15.7896ZM24.1183 19.3155C23.9539 19.2713 23.7845 19.2487 23.6145 19.2487C22.8035 19.2487 22.0811 19.7617 21.858 20.4961C21.5813 21.4067 22.1444 22.3598 23.1139 22.6207C23.2779 22.6648 23.447 22.6871 23.6163 22.6871H23.6164C24.4281 22.6871 25.1507 22.1742 25.374 21.4395C25.5079 20.9985 25.4511 20.5345 25.2139 20.1332C24.9767 19.7317 24.5874 19.4412 24.1183 19.3155ZM19.4859 10.3671C19.8067 10.9837 19.5894 11.3649 19.3474 11.576C19.0963 11.7693 18.7671 11.8629 18.4556 11.8222C18.0924 11.7749 17.7899 11.5542 17.5809 11.1835C16.6756 9.57856 15.6509 7.8283 15.6334 7.79847L15.6333 7.79821L15.2289 8.00768C15.238 8.02317 16.0469 9.40468 16.8622 10.8385L15.0167 13.4766C12.7523 13.3002 10.9923 12.062 10.8251 11.5871C11.0784 11.1739 11.2955 10.8182 11.4859 10.5063L11.4859 10.5062C12.3034 9.16663 12.63 8.6315 13.2332 7.79434L13.2769 7.73362L13.2769 7.73358C13.3942 7.57056 13.5164 7.40075 13.6457 7.21985C14.3513 6.25629 15.1371 5.73796 15.865 5.76749C16.4614 5.78831 17.0213 6.17383 17.4015 6.82529L17.4072 6.83464L17.4134 6.84498C18.2165 8.13952 18.7089 8.94186 19.4859 10.3671ZM16.1855 1.95502C15.2739 1.95502 14.4986 2.62521 14.4203 3.48081C14.3796 3.92539 14.5252 4.35787 14.8305 4.69901C15.1357 5.04032 15.5641 5.24913 16.0365 5.28738C17.0136 5.36677 17.8747 4.67158 17.9578 3.76757C18.0419 2.85065 17.3166 2.04039 16.3408 1.96132C16.289 1.95696 16.2369 1.95502 16.1855 1.95502Z" fill="#0368D9"/>
</svg>
