<svg width="28" height="28" viewBox="0 0 28 28" fill="none" xmlns="http://www.w3.org/2000/svg">
<path fill-rule="evenodd" clip-rule="evenodd" d="M7.97268 0.704586L10.9405 2.74628C11.0075 2.79229 11.0837 2.81427 11.1593 2.81427C11.282 2.81427 11.4029 2.75589 11.4778 2.64703C11.5988 2.47121 11.5542 2.23066 11.3785 2.10978L8.41068 0.0680926C8.23469 -0.0527845 7.99414 -0.00848584 7.87343 0.167335C7.75239 0.343157 7.79703 0.583709 7.97268 0.704586ZM7.20976 2.28267L10.1779 4.32436C10.2449 4.37037 10.3211 4.39252 10.3967 4.39252C10.5195 4.39252 10.6403 4.33397 10.7152 4.22511C10.8362 4.04929 10.7916 3.80874 10.616 3.68786L7.64777 1.646C7.47195 1.52495 7.23139 1.56977 7.11052 1.74542C6.98947 1.92124 7.03411 2.16162 7.20976 2.28267ZM26.4194 16.5208C24.3741 13.1866 22.3207 9.66275 21.8054 8.77523C21.0237 10.3353 18.4483 14.9393 15.5583 15.213C12.3259 15.7233 9.96308 14.1544 9.17944 12.8579C8.42448 11.6091 9.75515 10.2036 9.75515 10.2036L11.9318 6.69525L12.4048 5.87916C11.3255 5.46845 10.3025 5.25726 9.35664 5.25726C5.49269 5.25726 3.63764 8.72921 3.08906 10.9074C1.19091 11.5933 0.355071 12.302 0.260636 12.3857C0.0896225 12.5367 -0.0056712 12.7556 -5.08287e-06 12.9836C0.00583273 13.2118 0.111944 13.4256 0.290169 13.5681C3.34626 16.0103 17.1077 25.6721 17.8392 26.1853C18.9837 27.0478 20.2984 27.5035 21.6416 27.5035C23.9625 27.5035 26.3251 26.088 27.3869 24.0612C28.9076 21.1586 27.2169 17.8209 26.4194 16.5208ZM23.3779 20.2724C23.2134 20.2253 23.0439 20.2013 22.8739 20.2013C22.0627 20.2013 21.34 20.7471 21.1168 21.5286C20.84 22.4975 21.4033 23.5115 22.3731 23.7892C22.5372 23.836 22.7064 23.8597 22.8757 23.8597H22.8758C23.6878 23.8597 24.4107 23.3141 24.634 22.5323C24.768 22.0631 24.7111 21.5694 24.4738 21.1424C24.2366 20.7152 23.8471 20.4061 23.3779 20.2724ZM18.7439 10.7513C19.0648 11.4074 18.8474 11.813 18.6053 12.0375C18.3541 12.2432 18.0248 12.3428 17.7132 12.2995C17.3499 12.2492 17.0473 12.0144 16.8382 11.62C15.9323 9.91169 14.9068 8.04869 14.89 8.01826L14.89 8.01816L14.8899 8.01803L14.4854 8.24089C14.4945 8.25738 15.3037 9.72731 16.1193 11.2529L14.2732 14.0598C12.0079 13.8722 10.2473 12.5547 10.0801 12.0494C10.3334 11.61 10.5504 11.2318 10.7407 10.8999L10.7411 10.8993C11.5589 9.47401 11.8856 8.90464 12.489 8.01391L12.5321 7.95017L12.5324 7.94974C12.6499 7.77614 12.7722 7.59531 12.9016 7.40265C13.6075 6.37743 14.3935 5.82593 15.1217 5.85735C15.7184 5.8795 16.2784 6.28969 16.6588 6.98285C16.6629 6.98989 16.6667 6.99693 16.6706 7.00379C17.474 8.38117 17.9666 9.23487 18.7439 10.7513ZM15.4423 1.80089C14.5304 1.80089 13.7548 2.51397 13.6765 3.42432C13.6358 3.89736 13.7814 4.35751 14.0869 4.72049C14.3922 5.08363 14.8207 5.30581 15.2932 5.34651C16.2707 5.43098 17.1322 4.6913 17.2153 3.72943C17.2994 2.75383 16.5738 1.89172 15.5977 1.80759C15.5458 1.80295 15.4938 1.80089 15.4423 1.80089Z" fill="#0368D9"/>
</svg>
