<svg width="29" height="27" viewBox="0 0 29 27" fill="none" xmlns="http://www.w3.org/2000/svg">
<path fill-rule="evenodd" clip-rule="evenodd" d="M8.78802 0.85642L11.7548 2.77531C11.8218 2.81855 11.898 2.83921 11.9735 2.83921C12.0962 2.83921 12.2171 2.78434 12.2919 2.68203C12.4129 2.51679 12.3683 2.2907 12.1927 2.1771L9.22588 0.258211C9.04995 0.144604 8.80948 0.186238 8.68882 0.351484C8.56781 0.51673 8.61244 0.742814 8.78802 0.85642ZM8.02537 2.33958L10.9925 4.25847C11.0595 4.30172 11.1357 4.32253 11.2112 4.32253C11.3339 4.32253 11.4548 4.26751 11.5296 4.1652C11.6506 3.99995 11.606 3.77387 11.4304 3.66026L8.46323 1.74121C8.28747 1.62744 8.047 1.66956 7.92616 1.83465C7.80516 1.99989 7.84978 2.22582 8.02537 2.33958ZM27.2283 15.7213C25.1837 12.5876 23.1311 9.27577 22.616 8.44163C21.8345 9.90787 19.2601 14.2349 16.371 14.4922C13.1397 14.9718 10.7777 13.4973 9.99437 12.2788C9.23967 11.1051 10.5699 9.78409 10.5699 9.78409L12.7458 6.48676L13.2186 5.71975C12.1397 5.33375 11.1171 5.13526 10.1715 5.13526C6.3089 5.13526 4.45449 8.39838 3.9061 10.4456C2.00861 11.0902 1.17306 11.7562 1.07866 11.835C0.907707 11.9768 0.812446 12.1826 0.81811 12.3969C0.823946 12.6113 0.93002 12.8123 1.10818 12.9462C4.16322 15.2416 17.9199 24.3222 18.6511 24.8045C19.7952 25.6151 21.1095 26.0434 22.4522 26.0434C24.7723 26.0434 27.1341 24.713 28.1955 22.8082C29.7157 20.0802 28.0256 16.9432 27.2283 15.7213ZM24.1879 19.2473C24.0235 19.2031 23.854 19.1805 23.6841 19.1805C22.8731 19.1805 22.1507 19.6935 21.9275 20.4279C21.6509 21.3385 22.214 22.2916 23.1834 22.5525C23.3475 22.5966 23.5166 22.6188 23.6858 22.6188H23.686C24.4977 22.6188 25.2203 22.106 25.4436 21.3713C25.5775 20.9302 25.5207 20.4663 25.2835 20.0649C25.0463 19.6634 24.657 19.373 24.1879 19.2473ZM19.5555 10.2989C19.8763 10.9155 19.659 11.2966 19.417 11.5077C19.1659 11.701 18.8367 11.7946 18.5251 11.754C18.1619 11.7067 17.8595 11.4859 17.6505 11.1153C16.7441 9.50832 15.7179 7.7557 15.7029 7.73012L15.7028 7.72998L15.2985 7.93944C15.3076 7.95493 16.1165 9.33644 16.9318 10.7702L15.0863 13.4084C12.8219 13.232 11.0619 11.9938 10.8947 11.5189C11.148 11.1057 11.365 10.7501 11.5553 10.4382L11.5555 10.4379L11.5555 10.4379C12.373 9.09838 12.6996 8.56325 13.3028 7.7261L13.3465 7.66538L13.3465 7.66534C13.4638 7.50232 13.586 7.33252 13.7152 7.15161C14.4209 6.18806 15.2066 5.66973 15.9346 5.69926C16.531 5.72007 17.0909 6.10559 17.4711 6.75706L17.4777 6.76793L17.4829 6.77674C18.286 8.07128 18.7785 8.87363 19.5555 10.2989ZM16.255 1.88679C15.3435 1.88679 14.5682 2.55697 14.4899 3.41257C14.4492 3.85715 14.5948 4.28963 14.9001 4.63077C15.2053 4.97208 15.6337 5.1809 16.1061 5.21914C17.0832 5.29854 17.9443 4.60334 18.0274 3.69933C18.1115 2.78241 17.3861 1.97215 16.4104 1.89308C16.3585 1.88872 16.3065 1.88679 16.255 1.88679Z" fill="#0368D9"/>
</svg>
