<svg width="29" height="27" viewBox="0 0 29 27" fill="none" xmlns="http://www.w3.org/2000/svg">
<path fill-rule="evenodd" clip-rule="evenodd" d="M8.76576 1.58555L11.7326 3.50443C11.7995 3.54768 11.8757 3.56834 11.9512 3.56834C12.074 3.56834 12.1948 3.51347 12.2696 3.41116C12.3906 3.24591 12.346 3.01983 12.1704 2.90622L9.20362 0.987337C9.02769 0.87373 8.78722 0.915364 8.66655 1.08061C8.54555 1.24586 8.59017 1.47194 8.76576 1.58555ZM8.00311 3.06871L10.9703 4.9876C11.0372 5.03084 11.1134 5.05166 11.1889 5.05166C11.3117 5.05166 11.4325 4.99663 11.5073 4.89432C11.6283 4.72908 11.5837 4.50299 11.4081 4.38939L8.44097 2.47034C8.26521 2.35657 8.02474 2.39869 7.9039 2.56377C7.7829 2.72902 7.82752 2.95494 8.00311 3.06871ZM27.206 16.4505C25.1615 13.3168 23.1088 10.0049 22.5937 9.17076C21.8122 10.637 19.2378 14.964 16.3487 15.2213C13.1174 15.7009 10.7555 14.2264 9.97211 13.0079C9.2174 11.8342 10.5476 10.5132 10.5476 10.5132L12.7235 7.21588L13.1964 6.44888C12.1174 6.06287 11.0948 5.86438 10.1492 5.86438C6.28664 5.86438 4.43223 9.12751 3.88384 11.1747C1.98635 11.8194 1.1508 12.4854 1.0564 12.5641C0.885444 12.706 0.790183 12.9117 0.795847 13.126C0.801683 13.3405 0.907757 13.5414 1.08592 13.6753C4.14096 15.9707 17.8976 25.0513 18.6288 25.5337C19.773 26.3442 21.0872 26.7725 22.43 26.7725C24.75 26.7725 27.1118 25.4422 28.1732 23.5373C29.6935 20.8093 28.0033 17.6724 27.206 16.4505ZM24.1656 19.9764C24.0012 19.9322 23.8318 19.9096 23.6619 19.9096C22.8509 19.9096 22.1284 20.4226 21.9053 21.157C21.6286 22.0676 22.1917 23.0207 23.1612 23.2816C23.3253 23.3257 23.4943 23.348 23.6636 23.348H23.6637C24.4754 23.348 25.198 22.8351 25.4213 22.1004C25.5552 21.6594 25.4984 21.1954 25.2612 20.7941C25.024 20.3926 24.6347 20.1021 24.1656 19.9764ZM19.5332 11.028C19.854 11.6446 19.6367 12.0258 19.3947 12.2368C19.1436 12.4302 18.8144 12.5238 18.5029 12.4831C18.1397 12.4358 17.8373 12.2151 17.6282 11.8444C16.7218 10.2374 15.6956 8.48483 15.6807 8.45925L15.6806 8.4591L15.2762 8.66856C15.2853 8.68406 16.0942 10.0656 16.9095 11.4994L15.0641 14.1375C12.7996 13.9611 11.0396 12.7229 10.8724 12.248C11.1257 11.8348 11.3427 11.4793 11.5331 11.1673L11.5332 11.1671L11.5333 11.167C12.3507 9.8275 12.6773 9.29238 13.2805 8.45523L13.3242 8.39451L13.3243 8.39447C13.4416 8.23145 13.5637 8.06164 13.693 7.88074C14.3986 6.91718 15.1844 6.39885 15.9123 6.42838C16.5088 6.4492 17.0686 6.83472 17.4488 7.48618L17.4554 7.49706L17.4607 7.50587C18.2638 8.80041 18.7562 9.60275 19.5332 11.028ZM16.2328 2.61591C15.3212 2.61591 14.5459 3.2861 14.4676 4.1417C14.4269 4.58628 14.5725 5.01876 14.8778 5.3599C15.183 5.7012 15.6114 5.91002 16.0838 5.94827C17.0609 6.02766 17.9221 5.33247 18.0051 4.42846C18.0892 3.51153 17.3639 2.70128 16.3881 2.62221C16.3363 2.61785 16.2843 2.61591 16.2328 2.61591Z" fill="#0368D9"/>
</svg>
