<svg width="29" height="27" viewBox="0 0 29 27" fill="none" xmlns="http://www.w3.org/2000/svg">
<path fill-rule="evenodd" clip-rule="evenodd" d="M8.7818 1.44309L11.7486 3.36198C11.8156 3.40522 11.8918 3.42588 11.9673 3.42588C12.09 3.42588 12.2108 3.37101 12.2857 3.2687C12.4067 3.10346 12.3621 2.87737 12.1865 2.76377L9.21965 0.844881C9.04372 0.731274 8.80325 0.772908 8.68259 0.938154C8.56158 1.1034 8.60621 1.32948 8.7818 1.44309ZM8.01915 2.92625L10.9863 4.84514C11.0532 4.88839 11.1294 4.9092 11.205 4.9092C11.3277 4.9092 11.4485 4.85418 11.5234 4.75187C11.6444 4.58662 11.5997 4.36054 11.4242 4.24693L8.457 2.32788C8.28124 2.21411 8.04077 2.25623 7.91994 2.42132C7.79893 2.58656 7.84356 2.81249 8.01915 2.92625ZM27.2221 16.308C25.1775 13.1743 23.1248 9.86244 22.6098 9.0283C21.8283 10.4945 19.2538 14.8216 16.3648 15.0788C13.1335 15.5584 10.7715 14.084 9.98815 12.8654C9.23344 11.6918 10.5637 10.3708 10.5637 10.3708L12.7395 7.07343L13.2124 6.30642C12.1335 5.92042 11.1108 5.72193 10.1653 5.72193C6.30267 5.72193 4.44827 8.98505 3.89987 11.0322C2.00239 11.6769 1.16684 12.3429 1.07244 12.4217C0.901481 12.5635 0.80622 12.7692 0.811884 12.9836C0.81772 13.198 0.923794 13.3989 1.10196 13.5329C4.15699 15.8282 17.9137 24.9089 18.6448 25.3912C19.789 26.2018 21.1033 26.6301 22.446 26.6301C24.7661 26.6301 27.1279 25.2997 28.1893 23.3949C29.7095 20.6668 28.0194 17.5299 27.2221 16.308ZM24.1817 19.8339C24.0172 19.7897 23.8478 19.7671 23.6779 19.7671C22.8669 19.7671 22.1445 20.2801 21.9213 21.0145C21.6446 21.9252 22.2078 22.8782 23.1772 23.1392C23.3413 23.1832 23.5104 23.2055 23.6796 23.2055H23.6798C24.4915 23.2055 25.2141 22.6927 25.4374 21.9579C25.5713 21.5169 25.5144 21.0529 25.2772 20.6516C25.04 20.2501 24.6508 19.9596 24.1817 19.8339ZM19.5493 10.8855C19.8701 11.5021 19.6528 11.8833 19.4108 12.0944C19.1596 12.2877 18.8304 12.3813 18.5189 12.3406C18.1557 12.2934 17.8533 12.0726 17.6442 11.7019C16.739 10.097 15.7142 8.34673 15.6968 8.3169L15.6966 8.31665L15.2922 8.52611C15.3013 8.5416 16.1103 9.92311 16.9256 11.3569L15.0801 13.995C12.8156 13.8187 11.0556 12.5804 10.8884 12.1055C11.1418 11.6923 11.3588 11.3367 11.5492 11.0247L11.5493 11.0246C12.3668 9.68506 12.6933 9.14993 13.2966 8.31277L13.3403 8.25205L13.3403 8.25201C13.4576 8.08899 13.5798 7.91919 13.709 7.73828C14.4146 6.77473 15.2004 6.2564 15.9283 6.28593C16.5248 6.30674 17.0847 6.69226 17.4649 7.34373L17.4705 7.35308L17.4767 7.36341C18.2798 8.65795 18.7723 9.4603 19.5493 10.8855ZM16.2488 2.47346C15.3372 2.47346 14.5619 3.14364 14.4837 3.99924C14.443 4.44382 14.5885 4.8763 14.8939 5.21744C15.1991 5.55875 15.6275 5.76757 16.0998 5.80581C17.077 5.88521 17.9381 5.19001 18.0212 4.286C18.1053 3.36908 17.3799 2.55882 16.4041 2.47975C16.3523 2.47539 16.3003 2.47346 16.2488 2.47346Z" fill="#0368D9"/>
</svg>
