<svg width="29" height="26" viewBox="0 0 29 26" fill="none" xmlns="http://www.w3.org/2000/svg">
<path fill-rule="evenodd" clip-rule="evenodd" d="M8.63531 0.795752L11.6021 2.71464C11.6691 2.75789 11.7453 2.77854 11.8208 2.77854C11.9435 2.77854 12.0644 2.72367 12.1392 2.62136C12.2602 2.45612 12.2156 2.23003 12.04 2.11643L9.07317 0.197542C8.89724 0.0839353 8.65677 0.125569 8.53611 0.290815C8.4151 0.456061 8.45973 0.682145 8.63531 0.795752ZM7.87266 2.27891L10.8398 4.1978C10.9068 4.24105 10.983 4.26187 11.0585 4.26187C11.1812 4.26187 11.302 4.20684 11.3769 4.10453C11.4979 3.93928 11.4533 3.7132 11.2777 3.59959L8.31052 1.68054C8.13476 1.56678 7.89429 1.60889 7.77345 1.77398C7.65245 1.93922 7.69707 2.16515 7.87266 2.27891ZM27.0756 15.6607C25.031 12.527 22.9784 9.2151 22.4633 8.38096C21.6818 9.8472 19.1073 14.1743 16.2183 14.4315C12.987 14.9111 10.625 13.4366 9.84166 12.2181C9.08696 11.0444 10.4172 9.72342 10.4172 9.72342L12.5931 6.42609L13.0659 5.65908C11.987 5.27308 10.9644 5.07459 10.0188 5.07459C6.15619 5.07459 4.30178 8.33771 3.75339 10.3849C1.8559 11.0296 1.02035 11.6956 0.925951 11.7743C0.754997 11.9162 0.659736 12.1219 0.6654 12.3362C0.671236 12.5507 0.77731 12.7516 0.955473 12.8855C4.01051 15.1809 17.7672 24.2615 18.4984 24.7439C19.6425 25.5544 20.9568 25.9827 22.2995 25.9827C24.6196 25.9827 26.9814 24.6524 28.0428 22.7475C29.563 20.0195 27.8729 16.8826 27.0756 15.6607ZM24.0352 19.1866C23.8707 19.1424 23.7013 19.1198 23.5314 19.1198C22.7204 19.1198 21.998 19.6328 21.7748 20.3672C21.4981 21.2778 22.0613 22.2309 23.0307 22.4918C23.1948 22.5359 23.3639 22.5582 23.5331 22.5582H23.5333C24.345 22.5582 25.0676 22.0453 25.2909 21.3106C25.4248 20.8696 25.368 20.4056 25.1308 20.0043C24.8935 19.6028 24.5043 19.3123 24.0352 19.1866ZM19.4028 10.2382C19.7236 10.8548 19.5063 11.236 19.2643 11.4471C19.0132 11.6404 18.684 11.734 18.3724 11.6933C18.0092 11.646 17.7068 11.4253 17.4977 11.0546C16.5914 9.44765 15.5652 7.69503 15.5502 7.66946L15.5501 7.66931L15.1458 7.87877C15.1549 7.89426 15.9638 9.27577 16.7791 10.7096L14.9336 13.3477C12.6691 13.1713 10.9091 11.9331 10.742 11.4582C10.9953 11.045 11.2123 10.6895 11.4026 10.3775L11.4028 10.3773L11.4028 10.3772C12.2203 9.03771 12.5469 8.50258 13.1501 7.66543L13.1938 7.60472L13.1938 7.60467C13.3111 7.44166 13.4333 7.27185 13.5625 7.09095C14.2682 6.12739 15.0539 5.60906 15.7819 5.63859C16.3783 5.65941 16.9382 6.04493 17.3184 6.69639L17.3249 6.70726L17.3302 6.71608C18.1333 8.01061 18.6258 8.81296 19.4028 10.2382ZM16.1023 1.82612C15.1907 1.82612 14.4154 2.4963 14.3372 3.3519C14.2965 3.79648 14.442 4.22896 14.7474 4.57011C15.0526 4.91141 15.481 5.12023 15.9533 5.15847C16.9305 5.23787 17.7916 4.54267 17.8747 3.63866C17.9588 2.72174 17.2334 1.91148 16.2577 1.83241C16.2058 1.82805 16.1538 1.82612 16.1023 1.82612Z" fill="#0368D9"/>
</svg>
