<svg width="29" height="27" viewBox="0 0 29 27" fill="none" xmlns="http://www.w3.org/2000/svg">
<path fill-rule="evenodd" clip-rule="evenodd" d="M8.76234 1.07505L11.7292 2.99393C11.7961 3.03718 11.8723 3.05784 11.9478 3.05784C12.0705 3.05784 12.1914 3.00297 12.2662 2.90066C12.3872 2.73541 12.3426 2.50933 12.167 2.39573L9.2002 0.476839C9.02427 0.363232 8.7838 0.404866 8.66314 0.570112C8.54213 0.735358 8.58676 0.961442 8.76234 1.07505ZM7.99969 2.55821L10.9668 4.4771C11.0338 4.52035 11.11 4.54116 11.1855 4.54116C11.3082 4.54116 11.4291 4.48613 11.5039 4.38382C11.6249 4.21858 11.5803 3.99249 11.4047 3.87889L8.43755 1.95984C8.26179 1.84607 8.02132 1.88819 7.90048 2.05328C7.77948 2.21852 7.8241 2.44444 7.99969 2.55821ZM27.2026 15.94C25.158 12.8063 23.1054 9.4944 22.5903 8.66026C21.8088 10.1265 19.2344 14.4536 16.3453 14.7108C13.114 15.1904 10.7521 13.7159 9.96869 12.4974C9.21399 11.3237 10.5442 10.0027 10.5442 10.0027L12.7201 6.70539L13.193 5.93838C12.114 5.55237 11.0914 5.35389 10.1458 5.35389C6.28322 5.35389 4.42881 8.61701 3.88042 10.6642C1.98293 11.3089 1.14738 11.9749 1.05298 12.0536C0.882026 12.1955 0.786765 12.4012 0.79243 12.6155C0.798265 12.83 0.904339 13.0309 1.0825 13.1648C4.13754 15.4602 17.8942 24.5408 18.6254 25.0232C19.7696 25.8337 21.0838 26.262 22.4266 26.262C24.7466 26.262 27.1084 24.9317 28.1698 23.0268C29.69 20.2988 27.9999 17.1619 27.2026 15.94ZM24.1622 19.4659C23.9978 19.4217 23.8284 19.3991 23.6584 19.3991C22.8474 19.3991 22.125 19.9121 21.9019 20.6465C21.6252 21.5571 22.1883 22.5102 23.1578 22.7711C23.3218 22.8152 23.4909 22.8375 23.6602 22.8375H23.6603C24.472 22.8375 25.1946 22.3246 25.4179 21.5899C25.5518 21.1489 25.495 20.6849 25.2578 20.2836C25.0206 19.8821 24.6313 19.5916 24.1622 19.4659ZM19.5298 10.5175C19.8506 11.1341 19.6333 11.5153 19.3913 11.7263C19.1402 11.9197 18.811 12.0133 18.4995 11.9726C18.1363 11.9253 17.8338 11.7046 17.6248 11.3339C16.7184 9.72695 15.6922 7.97433 15.6773 7.94875L15.6772 7.9486L15.2728 8.15807C15.2819 8.17356 16.0908 9.55507 16.9061 10.9889L15.0606 13.627C12.7962 13.4506 11.0362 12.2124 10.869 11.7375C11.1223 11.3243 11.3393 10.9688 11.5297 10.6568L11.5298 10.6566L11.5298 10.6565C12.3473 9.317 12.6739 8.78188 13.2771 7.94473L13.3208 7.88401L13.3208 7.88397C13.4381 7.72095 13.5603 7.55115 13.6896 7.37024C14.3952 6.40668 15.181 5.88835 15.9089 5.91788C16.5053 5.9387 17.0652 6.32422 17.4454 6.97569L17.452 6.98656L17.4573 6.99537C18.2604 8.28991 18.7528 9.09225 19.5298 10.5175ZM16.2294 2.10542C15.3178 2.10542 14.5425 2.7756 14.4642 3.6312C14.4235 4.07578 14.5691 4.50826 14.8744 4.8494C15.1796 5.19071 15.608 5.39952 16.0804 5.43777C17.0575 5.51716 17.9186 4.82197 18.0017 3.91796C18.0858 3.00104 17.3605 2.19078 16.3847 2.11171C16.3329 2.10735 16.2808 2.10542 16.2294 2.10542Z" fill="#0368D9"/>
</svg>
