<svg width="29" height="27" viewBox="0 0 29 27" fill="none" xmlns="http://www.w3.org/2000/svg">
<path fill-rule="evenodd" clip-rule="evenodd" d="M8.60547 1.27769L11.5723 3.19657C11.6392 3.23982 11.7154 3.26048 11.791 3.26048C11.9137 3.26048 12.0345 3.20561 12.1093 3.1033C12.2304 2.93805 12.1857 2.71197 12.0101 2.59836L9.04332 0.679475C8.86739 0.565869 8.62692 0.607503 8.50626 0.772749C8.38525 0.937995 8.42988 1.16408 8.60547 1.27769ZM7.84282 2.76085L10.81 4.67973C10.8769 4.72298 10.9531 4.7438 11.0286 4.7438C11.1514 4.7438 11.2722 4.68877 11.347 4.58646C11.468 4.42121 11.4234 4.19513 11.2478 4.08152L8.28067 2.16248C8.10491 2.04871 7.86444 2.09083 7.74361 2.25591C7.6226 2.42116 7.66723 2.64708 7.84282 2.76085ZM27.0458 16.1426C25.0012 13.0089 22.9485 9.69703 22.4334 8.8629C21.6519 10.3291 19.0775 14.6562 16.1884 14.9134C12.9571 15.393 10.5952 13.9186 9.81182 12.7C9.05711 11.5264 10.3873 10.2054 10.3873 10.2054L12.5632 6.90802L13.0361 6.14102C11.9572 5.75501 10.9345 5.55652 9.98895 5.55652C6.12634 5.55652 4.27194 8.81965 3.72354 10.8668C1.82605 11.5115 0.990507 12.1775 0.896105 12.2562C0.72515 12.3981 0.62989 12.6038 0.635554 12.8181C0.64139 13.0326 0.747464 13.2335 0.925627 13.3675C3.98066 15.6628 17.7373 24.7435 18.4685 25.2258C19.6127 26.0364 20.9269 26.4647 22.2697 26.4647C24.5897 26.4647 26.9515 25.1343 28.013 23.2295C29.5332 20.5014 27.843 17.3645 27.0458 16.1426ZM24.0053 19.6685C23.8409 19.6243 23.6715 19.6017 23.5016 19.6017C22.6906 19.6017 21.9681 20.1147 21.745 20.8491C21.4683 21.7598 22.0315 22.7128 23.0009 22.9738C23.165 23.0178 23.334 23.0401 23.5033 23.0401H23.5034C24.3151 23.0401 25.0377 22.5273 25.2611 21.7925C25.3949 21.3515 25.3381 20.8875 25.1009 20.4862C24.8637 20.0847 24.4744 19.7942 24.0053 19.6685ZM19.3729 10.7201C19.6937 11.3367 19.4764 11.7179 19.2344 11.929C18.9833 12.1223 18.6541 12.2159 18.3426 12.1752C17.9794 12.128 17.677 11.9072 17.4679 11.5365C16.5615 9.92959 15.5354 8.17696 15.5204 8.15139L15.5203 8.15124L15.1159 8.3607C15.125 8.37619 15.9339 9.75771 16.7492 11.1915L14.9038 13.8296C12.6393 13.6533 10.8793 12.415 10.7121 11.9401C10.9654 11.527 11.1824 11.1714 11.3728 10.8595L11.3729 10.8592L11.373 10.8592C12.1904 9.51964 12.517 8.98451 13.1202 8.14737L13.1639 8.08665L13.164 8.08661C13.2813 7.92359 13.4035 7.75378 13.5327 7.57288C14.2383 6.60932 15.0241 6.09099 15.752 6.12052C16.3485 6.14134 16.9084 6.52686 17.2885 7.17832L17.2951 7.1892L17.3004 7.19801C18.1035 8.49254 18.5959 9.29489 19.3729 10.7201ZM16.0725 2.30805C15.1609 2.30805 14.3856 2.97823 14.3073 3.83383C14.2666 4.27842 14.4122 4.7109 14.7175 5.05204C15.0227 5.39334 15.4511 5.60216 15.9235 5.64041C16.9006 5.7198 17.7618 5.02461 17.8448 4.12059C17.9289 3.20367 17.2036 2.39342 16.2278 2.31435C16.176 2.30999 16.124 2.30805 16.0725 2.30805Z" fill="#0368D9"/>
</svg>
