<svg width="64" height="66" viewBox="0 0 64 66" fill="none" xmlns="http://www.w3.org/2000/svg">
<path d="M25.9053 57.2976L25.9135 57.2991L25.9217 57.3005L26.5817 57.4119L30.9013 63.3731C31.4642 64.1499 32.6217 64.15 33.1847 63.3732L37.5871 57.2993L37.7118 57.276C51.6744 54.673 61.99 43.1869 61.99 29.6208C61.99 13.9605 48.3638 1.41785 31.7501 1.41785C15.1363 1.41785 1.51013 13.9605 1.51013 29.6208C1.51013 43.2439 11.9069 54.7433 25.9053 57.2976ZM26.9568 57.4752C26.9561 57.4751 26.9554 57.4749 26.9547 57.4748L26.9568 57.4752L27.1115 56.5581L26.9568 57.4752Z" fill="url(#paint0_linear_317_2438)" stroke="#0070F0" stroke-width="2.5"/>
<defs>
<linearGradient id="paint0_linear_317_2438" x1="71.0343" y1="54.3754" x2="46.8089" y2="21.6094" gradientUnits="userSpaceOnUse">
<stop stop-color="#DEDCDC"/>
<stop offset="1" stop-color="white"/>
</linearGradient>
</defs>
</svg>
