<svg width="64" height="66" viewBox="0 0 64 66" fill="none" xmlns="http://www.w3.org/2000/svg">
<path d="M25.9428 57.8847L25.951 57.8862L25.9592 57.8876L26.6191 57.9989L30.9388 63.9601C31.5017 64.737 32.6592 64.737 33.2222 63.9603L37.6246 57.8863L37.7493 57.8631C51.7118 55.26 62.0275 43.774 62.0275 30.2079C62.0275 14.5476 48.4013 2.00491 31.7875 2.00491C15.1738 2.00491 1.54761 14.5476 1.54761 30.2079C1.54761 43.8309 11.9444 55.3304 25.9428 57.8847ZM26.9943 58.0622C26.9936 58.0621 26.9928 58.062 26.9921 58.0619L26.9943 58.0622L27.149 57.1452L26.9943 58.0622Z" fill="url(#paint0_linear_336_5810)" stroke="#0070F0" stroke-width="2.5"/>
<defs>
<linearGradient id="paint0_linear_336_5810" x1="71.0718" y1="54.9624" x2="46.8464" y2="22.1965" gradientUnits="userSpaceOnUse">
<stop stop-color="#DEDCDC"/>
<stop offset="1" stop-color="white"/>
</linearGradient>
</defs>
</svg>
