<svg width="64" height="66" viewBox="0 0 64 66" fill="none" xmlns="http://www.w3.org/2000/svg">
<path d="M25.8339 57.7782L25.8421 57.7797L25.8503 57.7811L26.5103 57.8925L30.8299 63.8537C31.3928 64.6305 32.5503 64.6306 33.1133 63.8538L37.5157 57.7799L37.6404 57.7566C51.6029 55.1535 61.9186 43.6675 61.9186 30.1014C61.9186 14.4411 48.2924 1.89844 31.6787 1.89844C15.0649 1.89844 1.43872 14.4411 1.43872 30.1014C1.43872 43.7245 11.8355 55.2239 25.8339 57.7782ZM26.8854 57.9558C26.8847 57.9557 26.884 57.9555 26.8833 57.9554L26.8854 57.9558L27.0401 57.0387L26.8854 57.9558Z" fill="url(#paint0_linear_334_5842)" stroke="#D13C27" stroke-width="2.5"/>
<defs>
<linearGradient id="paint0_linear_334_5842" x1="70.9629" y1="54.856" x2="46.7375" y2="22.09" gradientUnits="userSpaceOnUse">
<stop stop-color="#DEDCDC"/>
<stop offset="1" stop-color="white"/>
</linearGradient>
</defs>
</svg>
