<svg width="64" height="66" viewBox="0 0 64 66" fill="none" xmlns="http://www.w3.org/2000/svg">
<path d="M25.8338 57.7782L25.842 57.7797L25.8502 57.7811L26.5102 57.8925L30.8298 63.8537C31.3927 64.6305 32.5502 64.6306 33.1132 63.8538L37.5156 57.7799L37.6403 57.7566C51.6029 55.1535 61.9185 43.6675 61.9185 30.1014C61.9185 14.4411 48.2923 1.89844 31.6786 1.89844C15.0649 1.89844 1.43866 14.4411 1.43866 30.1014C1.43866 43.7245 11.8354 55.2239 25.8338 57.7782ZM26.8853 57.9558C26.8846 57.9557 26.8839 57.9555 26.8832 57.9554L26.8853 57.9558L27.0401 57.0387L26.8853 57.9558Z" fill="url(#paint0_linear_330_2389)" stroke="#D13C27" stroke-width="2.5"/>
<defs>
<linearGradient id="paint0_linear_330_2389" x1="70.9628" y1="54.856" x2="46.7375" y2="22.09" gradientUnits="userSpaceOnUse">
<stop stop-color="#DEDCDC"/>
<stop offset="1" stop-color="white"/>
</linearGradient>
</defs>
</svg>
