<svg width="64" height="66" viewBox="0 0 64 66" fill="none" xmlns="http://www.w3.org/2000/svg">
<path d="M25.9463 57.3952L25.9545 57.3967L25.9627 57.3981L26.6226 57.5094L30.9422 63.4706C31.5051 64.2474 32.6627 64.2475 33.2256 63.4708L37.6281 57.3968L37.7527 57.3736C51.7153 54.7705 62.031 43.2844 62.031 29.7184C62.031 14.0581 48.4048 1.51538 31.791 1.51538C15.1773 1.51538 1.55109 14.0581 1.55109 29.7184C1.55109 43.3414 11.9478 54.8408 25.9463 57.3952ZM26.9977 57.5727C26.997 57.5726 26.9963 57.5725 26.9956 57.5724L26.9977 57.5727L27.1525 56.6557L26.9977 57.5727Z" fill="url(#paint0_linear_317_5600)" stroke="#0070F0" stroke-width="2.5"/>
<defs>
<linearGradient id="paint0_linear_317_5600" x1="71.0753" y1="54.4729" x2="46.8499" y2="21.7069" gradientUnits="userSpaceOnUse">
<stop stop-color="#DEDCDC"/>
<stop offset="1" stop-color="white"/>
</linearGradient>
</defs>
</svg>
