<svg width="64" height="66" viewBox="0 0 64 66" fill="none" xmlns="http://www.w3.org/2000/svg">
<path d="M25.9651 57.9749L25.9733 57.9764L25.9815 57.9778L26.6414 58.0891L30.961 64.0503C31.5239 64.8272 32.6814 64.8272 33.2444 64.0505L37.6469 57.9765L37.7715 57.9533C51.7341 55.3502 62.0498 43.8641 62.0498 30.2981C62.0498 14.6378 48.4235 2.09509 31.8098 2.09509C15.1961 2.09509 1.56988 14.6378 1.56988 30.2981C1.56988 43.9211 11.9666 55.4205 25.9651 57.9749ZM27.0165 58.1524C27.0158 58.1523 27.0151 58.1522 27.0144 58.1521L27.0165 58.1524L27.1713 57.2354L27.0165 58.1524Z" fill="url(#paint0_linear_317_5630)" stroke="#0070F0" stroke-width="2.5"/>
<defs>
<linearGradient id="paint0_linear_317_5630" x1="71.094" y1="55.0526" x2="46.8687" y2="22.2867" gradientUnits="userSpaceOnUse">
<stop stop-color="#DEDCDC"/>
<stop offset="1" stop-color="white"/>
</linearGradient>
</defs>
</svg>
