<svg width="16" height="16" viewBox="0 0 16 16" fill="none" xmlns="http://www.w3.org/2000/svg">
<path fill-rule="evenodd" clip-rule="evenodd" d="M8.18743 9.00277C6.58679 9.00277 5.27086 7.81969 5.11269 6.30763C5.10004 6.20641 5.10004 6.09885 5.10004 5.99763C5.10004 4.34006 6.47924 2.99881 8.19375 2.99881C9.90194 2.99881 11.2875 4.34006 11.2875 5.99763C11.2875 6.61764 11.0913 7.19968 10.756 7.68051C10.1993 8.47766 9.25662 9.00277 8.18743 9.00277ZM8.19375 0C4.77738 0 2 2.68881 2 5.99763C2 7.8703 2.93634 10.0846 4.77106 12.5773C6.09964 14.3741 7.40925 15.652 7.45987 15.709C7.66232 15.8988 7.92803 16 8.19375 16C8.45314 16 8.71886 15.9051 8.92131 15.709C8.97825 15.652 10.2879 14.3741 11.6101 12.5773C13.4512 10.0846 14.3812 7.8703 14.3812 5.99763C14.3812 2.68881 11.6038 0 8.19375 0Z" fill="white"/>
<mask id="mask0_303_14561" style="mask-type:luminance" maskUnits="userSpaceOnUse" x="2" y="0" width="13" height="16">
<path fill-rule="evenodd" clip-rule="evenodd" d="M8.18743 9.00277C6.58679 9.00277 5.27086 7.81969 5.11269 6.30763C5.10004 6.20641 5.10004 6.09885 5.10004 5.99763C5.10004 4.34006 6.47924 2.99881 8.19375 2.99881C9.90194 2.99881 11.2875 4.34006 11.2875 5.99763C11.2875 6.61764 11.0913 7.19968 10.756 7.68051C10.1993 8.47766 9.25662 9.00277 8.18743 9.00277ZM8.19375 0C4.77738 0 2 2.68881 2 5.99763C2 7.8703 2.93634 10.0846 4.77106 12.5773C6.09964 14.3741 7.40925 15.652 7.45987 15.709C7.66232 15.8988 7.92803 16 8.19375 16C8.45314 16 8.71886 15.9051 8.92131 15.709C8.97825 15.652 10.2879 14.3741 11.6101 12.5773C13.4512 10.0846 14.3812 7.8703 14.3812 5.99763C14.3812 2.68881 11.6038 0 8.19375 0Z" fill="white"/>
</mask>
<g mask="url(#mask0_303_14561)">
</g>
</svg>
