<svg width="29" height="27" viewBox="0 0 29 27" fill="none" xmlns="http://www.w3.org/2000/svg">
<path fill-rule="evenodd" clip-rule="evenodd" d="M8.65405 1.48801L11.6209 3.4069C11.6878 3.45015 11.764 3.4708 11.8395 3.4708C11.9623 3.4708 12.0831 3.41594 12.1579 3.31362C12.2789 3.14838 12.2343 2.9223 12.0587 2.80869L9.09191 0.889803C8.91598 0.776196 8.67551 0.81783 8.55484 0.983076C8.43384 1.14832 8.47846 1.37441 8.65405 1.48801ZM7.8914 2.97118L10.8586 4.89006C10.9255 4.93331 11.0017 4.95413 11.0772 4.95413C11.1999 4.95413 11.3208 4.8991 11.3956 4.79679C11.5166 4.63154 11.472 4.40546 11.2964 4.29185L8.32926 2.3728C8.1535 2.25904 7.91303 2.30115 7.79219 2.46624C7.67119 2.63148 7.71581 2.85741 7.8914 2.97118ZM27.0943 16.3529C25.0498 13.2192 22.9971 9.90736 22.482 9.07322C21.7005 10.5395 19.1261 14.8665 16.237 15.1237C13.0057 15.6033 10.6438 14.1289 9.8604 12.9104C9.10569 11.7367 10.4359 10.4157 10.4359 10.4157L12.6118 7.11835L13.0847 6.35134C12.0057 5.96534 10.9831 5.76685 10.0375 5.76685C6.17493 5.76685 4.32052 9.02997 3.77213 11.0772C1.87464 11.7218 1.03909 12.3878 0.944689 12.4666C0.773734 12.6084 0.678474 12.8142 0.684138 13.0285C0.689974 13.2429 0.796048 13.4438 0.974211 13.5778C4.02925 15.8732 17.7859 24.9538 18.5171 25.4361C19.6613 26.2467 20.9755 26.675 22.3183 26.675C24.6383 26.675 27.0001 25.3446 28.0615 23.4398C29.5818 20.7118 27.8916 17.5748 27.0943 16.3529ZM24.0539 19.8789C23.8895 19.8346 23.7201 19.812 23.5501 19.812C22.7391 19.812 22.0167 20.3251 21.7936 21.0595C21.5169 21.9701 22.08 22.9232 23.0495 23.1841C23.2136 23.2282 23.3826 23.2504 23.5519 23.2504H23.552C24.3637 23.2504 25.0863 22.7376 25.3096 22.0029C25.4435 21.5618 25.3867 21.0979 25.1495 20.6965C24.9123 20.295 24.523 20.0046 24.0539 19.8789ZM19.4215 10.9305C19.7423 11.5471 19.525 11.9282 19.283 12.1393C19.0319 12.3326 18.7027 12.4262 18.3912 12.3856C18.028 12.3383 17.7255 12.1175 17.5165 11.7469C16.6101 10.1399 15.5839 8.38729 15.569 8.36172L15.5689 8.36157L15.1645 8.57103C15.1736 8.58652 15.9825 9.96804 16.7978 11.4018L14.9523 14.04C12.6879 13.8636 10.9279 12.6254 10.7607 12.1504C11.014 11.7373 11.231 11.3817 11.4214 11.0698L11.4215 11.0695L11.4215 11.0695C12.239 9.72997 12.5656 9.19484 13.1688 8.35769L13.2125 8.29698L13.2125 8.29694C13.3298 8.13392 13.452 7.96411 13.5813 7.78321C14.2869 6.81965 15.0727 6.30132 15.8006 6.33085C16.397 6.35167 16.9569 6.73719 17.3371 7.38865L17.3437 7.39953L17.349 7.40834C18.1521 8.70287 18.6445 9.50522 19.4215 10.9305ZM16.1211 2.51838C15.2095 2.51838 14.4342 3.18856 14.3559 4.04416C14.3152 4.48874 14.4608 4.92122 14.7661 5.26237C15.0713 5.60367 15.4997 5.81249 15.9721 5.85073C16.9492 5.93013 17.8104 5.23493 17.8934 4.33092C17.9775 3.414 17.2522 2.60375 16.2764 2.52467C16.2246 2.52032 16.1726 2.51838 16.1211 2.51838Z" fill="#0368D9"/>
</svg>
