<svg width="29" height="27" viewBox="0 0 29 27" fill="none" xmlns="http://www.w3.org/2000/svg">
<path fill-rule="evenodd" clip-rule="evenodd" d="M8.61652 1.36704L11.5833 3.28593C11.6503 3.32918 11.7265 3.34983 11.802 3.34983C11.9247 3.34983 12.0456 3.29496 12.1204 3.19265C12.2414 3.02741 12.1968 2.80132 12.0212 2.68772L9.05437 0.768831C8.87844 0.655224 8.63797 0.696859 8.51731 0.862105C8.3963 1.02735 8.44093 1.25343 8.61652 1.36704ZM7.85387 2.8502L10.821 4.76909C10.888 4.81234 10.9642 4.83315 11.0397 4.83315C11.1624 4.83315 11.2833 4.77813 11.3581 4.67582C11.4791 4.51057 11.4345 4.28449 11.2589 4.17088L8.29173 2.25183C8.11597 2.13806 7.8755 2.18018 7.75466 2.34527C7.63366 2.51051 7.67828 2.73644 7.85387 2.8502ZM27.0568 16.2319C25.0122 13.0982 22.9596 9.78639 22.4445 8.95225C21.663 10.4185 19.0886 14.7455 16.1995 15.0028C12.9682 15.4824 10.6062 14.0079 9.82287 12.7894C9.06817 11.6157 10.3984 10.2947 10.3984 10.2947L12.5743 6.99738L13.0471 6.23037C11.9682 5.84437 10.9456 5.64588 10 5.64588C6.1374 5.64588 4.28299 8.909 3.73459 10.9562C1.8371 11.6009 1.00155 12.2669 0.907152 12.3456C0.736198 12.4874 0.640937 12.6932 0.646601 12.9075C0.652437 13.122 0.758511 13.3229 0.936675 13.4568C3.99171 15.7522 17.7484 24.8328 18.4796 25.3152C19.6237 26.1257 20.938 26.554 22.2807 26.554C24.6008 26.554 26.9626 25.2237 28.024 23.3188C29.5442 20.5908 27.8541 17.4539 27.0568 16.2319ZM24.0164 19.7579C23.852 19.7137 23.6826 19.6911 23.5126 19.6911C22.7016 19.6911 21.9792 20.2041 21.7561 20.9385C21.4794 21.8491 22.0425 22.8022 23.012 23.0631C23.176 23.1072 23.3451 23.1295 23.5143 23.1295H23.5145C24.3262 23.1295 25.0488 22.6166 25.2721 21.8819C25.406 21.4408 25.3492 20.9769 25.112 20.5756C24.8748 20.1741 24.4855 19.8836 24.0164 19.7579ZM19.384 10.8095C19.7048 11.4261 19.4875 11.8073 19.2455 12.0183C18.9944 12.2117 18.6652 12.3053 18.3536 12.2646C17.9905 12.2173 17.688 11.9966 17.479 11.6259C16.5721 10.0181 15.5453 8.26438 15.5314 8.24071L15.5314 8.2406L15.127 8.45006C15.1361 8.46555 15.945 9.84706 16.7603 11.2809L14.9148 13.919C12.6504 13.7426 10.8904 12.5044 10.7232 12.0295C10.9765 11.6163 11.1935 11.2607 11.3839 10.9487L11.384 10.9486C12.2015 9.60901 12.5281 9.07388 13.1313 8.23672L13.1747 8.17647L13.175 8.17599C13.2923 8.01296 13.4145 7.84315 13.5438 7.66223C14.2494 6.69868 15.0351 6.18035 15.7631 6.20988C16.3595 6.23069 16.9194 6.61621 17.2996 7.26768C17.3019 7.27139 17.3041 7.27511 17.3063 7.2788C17.308 7.28168 17.3097 7.28454 17.3114 7.28737C18.1146 8.5819 18.607 9.38425 19.384 10.8095ZM16.0835 2.39741C15.172 2.39741 14.3967 3.06759 14.3184 3.92319C14.2777 4.36777 14.4233 4.80025 14.7286 5.1414C15.0338 5.4827 15.4622 5.69152 15.9346 5.72976C16.9117 5.80916 17.7728 5.11396 17.8559 4.20995C17.94 3.29303 17.2147 2.48277 16.2389 2.4037C16.187 2.39934 16.135 2.39741 16.0835 2.39741Z" fill="#0368D9"/>
</svg>
