<svg width="29" height="27" viewBox="0 0 29 27" fill="none" xmlns="http://www.w3.org/2000/svg">
<path fill-rule="evenodd" clip-rule="evenodd" d="M8.76581 1.58549L11.7326 3.50437C11.7996 3.54762 11.8758 3.56828 11.9513 3.56828C12.074 3.56828 12.1948 3.51341 12.2697 3.4111C12.3907 3.24585 12.3461 3.01977 12.1705 2.90616L9.20366 0.987276C9.02773 0.873669 8.78726 0.915303 8.6666 1.08055C8.54559 1.2458 8.59022 1.47188 8.76581 1.58549ZM8.00316 3.06865L10.9703 4.98753C11.0372 5.03078 11.1135 5.0516 11.189 5.0516C11.3117 5.0516 11.4325 4.99657 11.5074 4.89426C11.6284 4.72902 11.5838 4.50293 11.4082 4.38932L8.44101 2.47028C8.26525 2.35651 8.02478 2.39863 7.90395 2.56371C7.78294 2.72896 7.82757 2.95488 8.00316 3.06865ZM27.2061 16.4504C25.1615 13.3167 23.1089 10.0048 22.5938 9.1707C21.8123 10.6369 19.2378 14.964 16.3488 15.2212C13.1175 15.7008 10.7555 14.2264 9.97215 13.0078C9.21745 11.8342 10.5477 10.5132 10.5477 10.5132L12.7236 7.21582L13.1964 6.44882C12.1175 6.06281 11.0949 5.86432 10.1493 5.86432C6.28668 5.86432 4.43228 9.12745 3.88388 11.1746C1.98639 11.8193 1.15085 12.4853 1.05644 12.564C0.88549 12.7059 0.790229 12.9116 0.795893 13.1259C0.801729 13.3404 0.907803 13.5413 1.08597 13.6753C4.141 15.9706 17.8977 25.0513 18.6289 25.5336C19.773 26.3442 21.0873 26.7725 22.43 26.7725C24.7501 26.7725 27.1119 25.4421 28.1733 23.5373C29.6935 20.8092 28.0034 17.6723 27.2061 16.4504ZM24.1657 19.9763C24.0012 19.9321 23.8318 19.9095 23.6619 19.9095C22.8509 19.9095 22.1285 20.4225 21.9053 21.1569C21.6286 22.0676 22.1918 23.0206 23.1612 23.2816C23.3253 23.3256 23.4944 23.3479 23.6636 23.3479H23.6638C24.4755 23.3479 25.1981 22.8351 25.4214 22.1003C25.5553 21.6593 25.4985 21.1953 25.2612 20.794C25.024 20.3925 24.6348 20.102 24.1657 19.9763ZM19.5333 11.0279C19.8541 11.6445 19.6368 12.0257 19.3948 12.2368C19.1437 12.4301 18.8144 12.5237 18.5029 12.483C18.1397 12.4358 17.8373 12.215 17.6282 11.8443C16.723 10.2394 15.6982 8.48913 15.6808 8.45929L15.6806 8.45904L15.2762 8.6685C15.2853 8.68399 16.0943 10.0655 16.9096 11.4993L15.0641 14.1374C12.7996 13.9611 11.0396 12.7228 10.8725 12.2479C11.1258 11.8347 11.3428 11.4791 11.5332 11.1671L11.5333 11.167C12.3508 9.82746 12.6774 9.29233 13.2806 8.45517L13.3243 8.39445L13.3243 8.39441C13.4416 8.23139 13.5638 8.06158 13.693 7.88068C14.3986 6.91712 15.1844 6.39879 15.9123 6.42832C16.5088 6.44914 17.0687 6.83466 17.4489 7.48612L17.4545 7.49547L17.4607 7.50581C18.2638 8.80034 18.7563 9.60269 19.5333 11.0279ZM16.2328 2.61585C15.3212 2.61585 14.5459 3.28603 14.4677 4.14163C14.427 4.58622 14.5725 5.0187 14.8779 5.35984C15.1831 5.70114 15.6115 5.90996 16.0838 5.94821C17.061 6.0276 17.9221 5.33241 18.0052 4.42839C18.0893 3.51147 17.3639 2.70122 16.3882 2.62215C16.3363 2.61779 16.2843 2.61585 16.2328 2.61585Z" fill="#0368D9"/>
</svg>
