<svg width="29" height="27" viewBox="0 0 29 27" fill="none" xmlns="http://www.w3.org/2000/svg">
<path fill-rule="evenodd" clip-rule="evenodd" d="M8.72479 1.48803L11.6916 3.40691C11.7585 3.45016 11.8348 3.47082 11.9103 3.47082C12.033 3.47082 12.1538 3.41595 12.2287 3.31364C12.3497 3.1484 12.305 2.92231 12.1295 2.8087L9.16265 0.889818C8.98672 0.776211 8.74625 0.817845 8.62558 0.983091C8.50458 1.14834 8.5492 1.37442 8.72479 1.48803ZM7.96214 2.97119L10.9293 4.89008C10.9962 4.93332 11.0724 4.95414 11.148 4.95414C11.2707 4.95414 11.3915 4.89911 11.4664 4.7968C11.5874 4.63156 11.5427 4.40547 11.3671 4.29187L8.4 2.37282C8.22424 2.25905 7.98377 2.30117 7.86293 2.46625C7.74193 2.6315 7.78655 2.85742 7.96214 2.97119ZM27.1651 16.3529C25.1205 13.2192 23.0678 9.90737 22.5527 9.07324C21.7713 10.5395 19.1968 14.8665 16.3078 15.1238C13.0765 15.6034 10.7145 14.1289 9.93114 12.9104C9.17643 11.7367 10.5066 10.4157 10.5066 10.4157L12.6825 7.11836L13.1554 6.35136C12.0765 5.96535 11.0538 5.76686 10.1083 5.76686C6.24567 5.76686 4.39126 9.02999 3.84287 11.0772C1.94538 11.7219 1.10983 12.3878 1.01543 12.4666C0.844474 12.6084 0.749214 12.8142 0.754878 13.0285C0.760713 13.243 0.866787 13.4439 1.04495 13.5778C4.09998 15.8732 17.8567 24.9538 18.5878 25.4361C19.732 26.2467 21.0463 26.675 22.389 26.675C24.7091 26.675 27.0708 25.3446 28.1323 23.4398C29.6525 20.7118 27.9623 17.5749 27.1651 16.3529ZM24.1246 19.8789C23.9602 19.8347 23.7908 19.8121 23.6209 19.8121C22.8099 19.8121 22.0874 20.3251 21.8643 21.0595C21.5876 21.9701 22.1508 22.9232 23.1202 23.1841C23.2843 23.2282 23.4534 23.2504 23.6226 23.2504H23.6228C24.4345 23.2504 25.1571 22.7376 25.3804 22.0029C25.5143 21.5618 25.4574 21.0979 25.2202 20.6966C24.983 20.2951 24.5937 20.0046 24.1246 19.8789ZM19.4923 10.9305C19.8131 11.5471 19.5958 11.9282 19.3538 12.1393C19.1026 12.3327 18.7734 12.4262 18.4619 12.3856C18.0987 12.3383 17.7963 12.1175 17.5872 11.7469C16.6806 10.1395 15.6541 8.38635 15.6397 8.36171L15.6397 8.36169L15.6396 8.36158L15.2352 8.57104C15.2443 8.58654 16.0533 9.96805 16.8686 11.4019L15.0231 14.04C12.7586 13.8636 10.9986 12.6254 10.8314 12.1505C11.0848 11.7372 11.3018 11.3816 11.4922 11.0696C12.3098 9.73 12.6363 9.19487 13.2396 8.35771L13.2827 8.29776L13.2829 8.29742C13.4004 8.13426 13.5226 7.9643 13.652 7.78322C14.3576 6.81966 15.1434 6.30133 15.8713 6.33086C16.4678 6.35168 17.0277 6.7372 17.4079 7.38866L17.4146 7.39983L17.4197 7.40835C18.2228 8.70289 18.7152 9.50523 19.4923 10.9305ZM16.1918 2.51839C15.2802 2.51839 14.5049 3.18858 14.4266 4.04418C14.386 4.48876 14.5315 4.92124 14.8369 5.26238C15.142 5.60369 15.5705 5.8125 16.0428 5.85075C17.02 5.93014 17.8811 5.23495 17.9642 4.33094C18.0483 3.41402 17.3229 2.60376 16.3471 2.52469C16.2953 2.52033 16.2433 2.51839 16.1918 2.51839Z" fill="#0368D9"/>
</svg>
