<svg width="29" height="27" viewBox="0 0 29 27" fill="none" xmlns="http://www.w3.org/2000/svg">
<path fill-rule="evenodd" clip-rule="evenodd" d="M8.72481 1.48801L11.6916 3.4069C11.7586 3.45015 11.8348 3.4708 11.9103 3.4708C12.033 3.4708 12.1538 3.41594 12.2287 3.31362C12.3497 3.14838 12.3051 2.9223 12.1295 2.80869L9.16266 0.889803C8.98673 0.776196 8.74626 0.81783 8.6256 0.983076C8.50459 1.14832 8.54922 1.37441 8.72481 1.48801ZM7.96216 2.97118L10.9293 4.89006C10.9962 4.93331 11.0725 4.95413 11.148 4.95413C11.2707 4.95413 11.3915 4.8991 11.4664 4.79679C11.5874 4.63154 11.5428 4.40546 11.3672 4.29185L8.40001 2.3728C8.22425 2.25904 7.98378 2.30115 7.86295 2.46624C7.74194 2.63148 7.78657 2.85741 7.96216 2.97118ZM27.1651 16.3529C25.1205 13.2192 23.0679 9.90736 22.5528 9.07322C21.7713 10.5395 19.1968 14.8665 16.3078 15.1237C13.0765 15.6033 10.7145 14.1289 9.93115 12.9104C9.17645 11.7367 10.5067 10.4157 10.5067 10.4157L12.6826 7.11835L13.1554 6.35134C12.0765 5.96534 11.0539 5.76685 10.1083 5.76685C6.24568 5.76685 4.39127 9.02997 3.84288 11.0772C1.94539 11.7218 1.10985 12.3878 1.01544 12.4666C0.844489 12.6084 0.749229 12.8142 0.754893 13.0285C0.760729 13.2429 0.866803 13.4438 1.04497 13.5778C4.1 15.8732 17.8567 24.9538 18.5879 25.4361C19.732 26.2467 21.0463 26.675 22.389 26.675C24.7091 26.675 27.0709 25.3446 28.1323 23.4398C29.6525 20.7118 27.9624 17.5748 27.1651 16.3529ZM24.1247 19.8789C23.9602 19.8346 23.7908 19.812 23.6209 19.812C22.8099 19.812 22.0875 20.3251 21.8643 21.0595C21.5876 21.9701 22.1508 22.9232 23.1202 23.1841C23.2843 23.2282 23.4534 23.2504 23.6226 23.2504H23.6228C24.4345 23.2504 25.1571 22.7376 25.3804 22.0029C25.5143 21.5618 25.4575 21.0979 25.2202 20.6965C24.983 20.295 24.5938 20.0046 24.1247 19.8789ZM19.4923 10.9305C19.8131 11.5471 19.5958 11.9282 19.3538 12.1393C19.1027 12.3326 18.7734 12.4262 18.4619 12.3856C18.0987 12.3383 17.7963 12.1175 17.5872 11.7469C16.6808 10.1399 15.6547 8.38729 15.6397 8.36172L15.6396 8.36157L15.2352 8.57103C15.2443 8.58652 16.0533 9.96804 16.8686 11.4018L15.0231 14.04C12.7586 13.8636 10.9986 12.6254 10.8315 12.1504C11.0848 11.7373 11.3018 11.3817 11.4921 11.0698L11.4923 11.0695L11.4923 11.0695C12.3098 9.72997 12.6364 9.19484 13.2396 8.35769L13.2833 8.29698L13.2833 8.29694C13.4006 8.13392 13.5228 7.96411 13.652 7.78321C14.3576 6.81965 15.1434 6.30132 15.8713 6.33085C16.4678 6.35167 17.0277 6.73719 17.4079 7.38865L17.4144 7.39953L17.4197 7.40834C18.2228 8.70287 18.7153 9.50522 19.4923 10.9305ZM16.1918 2.51838C15.2802 2.51838 14.5049 3.18856 14.4267 4.04416C14.386 4.48874 14.5315 4.92122 14.8369 5.26237C15.1421 5.60367 15.5705 5.81249 16.0428 5.85073C17.02 5.93013 17.8811 5.23493 17.9642 4.33092C18.0483 3.414 17.3229 2.60375 16.3472 2.52467C16.2953 2.52032 16.2433 2.51838 16.1918 2.51838Z" fill="#0368D9"/>
</svg>
