<svg width="29" height="27" viewBox="0 0 29 27" fill="none" xmlns="http://www.w3.org/2000/svg">
<path fill-rule="evenodd" clip-rule="evenodd" d="M8.78175 1.44309L11.7486 3.36198C11.8155 3.40522 11.8917 3.42588 11.9672 3.42588C12.09 3.42588 12.2108 3.37101 12.2856 3.2687C12.4066 3.10346 12.362 2.87737 12.1864 2.76377L9.21961 0.844881C9.04368 0.731274 8.80321 0.772908 8.68254 0.938154C8.56154 1.1034 8.60616 1.32948 8.78175 1.44309ZM8.0191 2.92625L10.9863 4.84514C11.0532 4.88839 11.1294 4.9092 11.2049 4.9092C11.3276 4.9092 11.4485 4.85418 11.5233 4.75187C11.6443 4.58662 11.5997 4.36054 11.4241 4.24693L8.45696 2.32788C8.2812 2.21411 8.04073 2.25623 7.91989 2.42132C7.79889 2.58656 7.84351 2.81249 8.0191 2.92625ZM27.222 16.308C25.1775 13.1743 23.1248 9.86244 22.6097 9.0283C21.8282 10.4945 19.2538 14.8216 16.3647 15.0788C13.1334 15.5584 10.7715 14.084 9.9881 12.8654C9.2334 11.6918 10.5636 10.3708 10.5636 10.3708L12.7395 7.07343L13.2124 6.30642C12.1334 5.92042 11.1108 5.72193 10.1652 5.72193C6.30263 5.72193 4.44822 8.98505 3.89983 11.0322C2.00234 11.6769 1.16679 12.3429 1.07239 12.4217C0.901435 12.5635 0.806175 12.7692 0.811839 12.9836C0.817674 13.198 0.923749 13.3989 1.10191 13.5329C4.15695 15.8282 17.9136 24.9089 18.6448 25.3912C19.789 26.2018 21.1032 26.6301 22.446 26.6301C24.766 26.6301 27.1278 25.2997 28.1892 23.3949C29.7095 20.6668 28.0193 17.5299 27.222 16.308ZM24.1816 19.8339C24.0172 19.7897 23.8478 19.7671 23.6778 19.7671C22.8668 19.7671 22.1444 20.2801 21.9213 21.0145C21.6446 21.9252 22.2077 22.8782 23.1772 23.1392C23.3413 23.1832 23.5103 23.2055 23.6796 23.2055H23.6797C24.4914 23.2055 25.214 22.6927 25.4373 21.9579C25.5712 21.5169 25.5144 21.0529 25.2772 20.6516C25.04 20.2501 24.6507 19.9596 24.1816 19.8339ZM19.5492 10.8855C19.87 11.5021 19.6527 11.8833 19.4107 12.0944C19.1596 12.2877 18.8304 12.3813 18.5189 12.3406C18.1557 12.2934 17.8532 12.0726 17.6442 11.7019C16.7378 10.095 15.7116 8.34237 15.6967 8.31679L15.6966 8.31665L15.2922 8.52611C15.3013 8.5416 16.1102 9.92311 16.9255 11.3569L15.08 13.995C12.8156 13.8187 11.0556 12.5804 10.8884 12.1055C11.1417 11.6924 11.3587 11.3368 11.5491 11.0249L11.5492 11.0246L11.5493 11.0246C12.3667 9.68505 12.6933 9.14992 13.2965 8.31277L13.3402 8.25205L13.3402 8.25201C13.4575 8.08899 13.5797 7.91919 13.709 7.73828C14.4146 6.77473 15.2004 6.2564 15.9283 6.28593C16.5247 6.30674 17.0846 6.69226 17.4648 7.34373L17.4714 7.3546L17.4767 7.36341C18.2798 8.65795 18.7722 9.4603 19.5492 10.8855ZM16.2488 2.47346C15.3372 2.47346 14.5619 3.14364 14.4836 3.99924C14.4429 4.44382 14.5885 4.8763 14.8938 5.21744C15.199 5.55875 15.6274 5.76757 16.0998 5.80581C17.0769 5.88521 17.9381 5.19001 18.0211 4.286C18.1052 3.36908 17.3799 2.55882 16.4041 2.47975C16.3523 2.47539 16.3003 2.47346 16.2488 2.47346Z" fill="#0368D9"/>
</svg>
