<svg width="29" height="27" viewBox="0 0 29 27" fill="none" xmlns="http://www.w3.org/2000/svg">
<path fill-rule="evenodd" clip-rule="evenodd" d="M8.65332 0.968603L11.6201 2.88749C11.6871 2.93074 11.7633 2.95139 11.8388 2.95139C11.9615 2.95139 12.0824 2.89653 12.1572 2.79422C12.2782 2.62897 12.2336 2.40289 12.058 2.28928L9.09118 0.370393C8.91524 0.256787 8.67477 0.298421 8.55411 0.463667C8.4331 0.628913 8.47773 0.854996 8.65332 0.968603ZM7.89067 2.45177L10.8578 4.37065C10.9248 4.4139 11.001 4.43472 11.0765 4.43472C11.1992 4.43472 11.3201 4.37969 11.3949 4.27738C11.5159 4.11213 11.4713 3.88605 11.2957 3.77244L8.32852 1.85339C8.15276 1.73963 7.91229 1.78175 7.79146 1.94683C7.67045 2.11208 7.71508 2.338 7.89067 2.45177ZM27.0936 15.8335C25.049 12.6998 22.9964 9.38795 22.4813 8.55381C21.6998 10.02 19.1254 14.3471 16.2363 14.6043C13.005 15.0839 10.643 13.6095 9.85967 12.3909C9.10496 11.2173 10.4352 9.89627 10.4352 9.89627L12.6111 6.59894L13.0839 5.83193C12.005 5.44593 10.9824 5.24744 10.0368 5.24744C6.17419 5.24744 4.31979 8.51056 3.7714 10.5577C1.87391 11.2024 1.03836 11.8684 0.943956 11.9472C0.773002 12.089 0.677741 12.2948 0.683405 12.5091C0.689241 12.7235 0.795315 12.9244 0.973478 13.0584C4.02851 15.3538 17.7852 24.4344 18.5164 24.9167C19.6605 25.7273 20.9748 26.1556 22.3175 26.1556C24.6376 26.1556 26.9994 24.8252 28.0608 22.9204C29.581 20.1924 27.8909 17.0554 27.0936 15.8335ZM24.0532 19.3594C23.8887 19.3152 23.7193 19.2926 23.5494 19.2926C22.7384 19.2926 22.016 19.8056 21.7928 20.5401C21.5162 21.4507 22.0793 22.4038 23.0487 22.6647C23.2128 22.7087 23.3819 22.731 23.5511 22.731H23.5513C24.363 22.731 25.0856 22.2182 25.3089 21.4834C25.4428 21.0424 25.386 20.5785 25.1488 20.1771C24.9116 19.7756 24.5223 19.4852 24.0532 19.3594ZM19.4208 10.4111C19.7416 11.0277 19.5243 11.4088 19.2823 11.6199C19.0312 11.8132 18.702 11.9068 18.3904 11.8662C18.0272 11.8189 17.7248 11.5981 17.5158 11.2274C16.6094 9.62051 15.5832 7.86788 15.5682 7.84231L15.5681 7.84216L15.1638 8.05162C15.1729 8.06711 15.9818 9.44863 16.7971 10.8824L14.9516 13.5206C12.6872 13.3442 10.9271 12.106 10.76 11.631C11.0133 11.2179 11.2303 10.8623 11.4206 10.5504L11.4208 10.5501L11.4208 10.5501C12.2383 9.21056 12.5649 8.67543 13.1681 7.83828L13.2118 7.77757L13.2118 7.77753C13.3291 7.61451 13.4513 7.4447 13.5805 7.2638C14.2862 6.30024 15.0719 5.78191 15.7999 5.81144C16.3963 5.83226 16.9562 6.21778 17.3364 6.86924L17.343 6.88012L17.3482 6.88893C18.1513 8.18346 18.6438 8.98581 19.4208 10.4111ZM16.1203 1.99897C15.2087 1.99897 14.4334 2.66915 14.3552 3.52475C14.3145 3.96933 14.46 4.40181 14.7654 4.74296C15.0706 5.08426 15.499 5.29308 15.9713 5.33132C16.9485 5.41072 17.8096 4.71552 17.8927 3.81151C17.9768 2.89459 17.2514 2.08434 16.2757 2.00526C16.2238 2.00091 16.1718 1.99897 16.1203 1.99897Z" fill="#0368D9"/>
</svg>
