<svg width="29" height="27" viewBox="0 0 29 27" fill="none" xmlns="http://www.w3.org/2000/svg">
<path fill-rule="evenodd" clip-rule="evenodd" d="M8.65326 0.968603L11.6201 2.88749C11.687 2.93074 11.7632 2.95139 11.8387 2.95139C11.9615 2.95139 12.0823 2.89653 12.1571 2.79422C12.2781 2.62897 12.2335 2.40289 12.0579 2.28928L9.09111 0.370393C8.91518 0.256787 8.67471 0.298421 8.55405 0.463667C8.43304 0.628913 8.47767 0.854996 8.65326 0.968603ZM7.89061 2.45177L10.8578 4.37065C10.9247 4.4139 11.0009 4.43472 11.0764 4.43472C11.1992 4.43472 11.32 4.37969 11.3948 4.27738C11.5158 4.11213 11.4712 3.88605 11.2956 3.77244L8.32846 1.85339C8.1527 1.73963 7.91223 1.78175 7.7914 1.94683C7.67039 2.11208 7.71502 2.338 7.89061 2.45177ZM27.0935 15.8335C25.049 12.6998 22.9963 9.38795 22.4812 8.55381C21.6997 10.02 19.1253 14.3471 16.2362 14.6043C13.0049 15.0839 10.643 13.6095 9.85961 12.3909C9.1049 11.2173 10.4351 9.89627 10.4351 9.89627L12.611 6.59894L13.0839 5.83193C12.0049 5.44593 10.9823 5.24744 10.0367 5.24744C6.17413 5.24744 4.31973 8.51056 3.77133 10.5577C1.87384 11.2024 1.0383 11.8684 0.943895 11.9472C0.772941 12.089 0.67768 12.2948 0.683344 12.5091C0.68918 12.7235 0.795254 12.9244 0.973417 13.0584C4.02845 15.3538 17.7851 24.4344 18.5163 24.9167C19.6605 25.7273 20.9747 26.1556 22.3175 26.1556C24.6375 26.1556 26.9993 24.8252 28.0607 22.9204C29.581 20.1924 27.8908 17.0554 27.0935 15.8335ZM24.0531 19.3594C23.8887 19.3152 23.7193 19.2926 23.5494 19.2926C22.7383 19.2926 22.0159 19.8056 21.7928 20.5401C21.5161 21.4507 22.0792 22.4038 23.0487 22.6647C23.2128 22.7087 23.3818 22.731 23.5511 22.731H23.5512C24.3629 22.731 25.0855 22.2182 25.3088 21.4834C25.4427 21.0424 25.3859 20.5785 25.1487 20.1771C24.9115 19.7756 24.5222 19.4852 24.0531 19.3594ZM19.4207 10.4111C19.7415 11.0277 19.5242 11.4088 19.2822 11.6199C19.0311 11.8132 18.7019 11.9068 18.3904 11.8662C18.0272 11.8189 17.7248 11.5981 17.5157 11.2274C16.6104 9.62251 15.5857 7.87224 15.5682 7.84241L15.5681 7.84216L15.1637 8.05162C15.1728 8.06711 15.9817 9.44863 16.797 10.8824L14.9515 13.5206C12.6871 13.3442 10.9271 12.106 10.7599 11.631C11.0133 11.2178 11.2303 10.8622 11.4207 10.5502L11.4207 10.5502C12.2382 9.21058 12.5648 8.67545 13.168 7.83828L13.2117 7.77757L13.2117 7.77753C13.3291 7.61451 13.4512 7.4447 13.5805 7.2638C14.2861 6.30024 15.0719 5.78191 15.7998 5.81144C16.3962 5.83226 16.9561 6.21778 17.3363 6.86924L17.342 6.87859L17.3482 6.88893C18.1513 8.18346 18.6437 8.98581 19.4207 10.4111ZM16.1203 1.99897C15.2087 1.99897 14.4334 2.66915 14.3551 3.52475C14.3144 3.96934 14.46 4.40181 14.7653 4.74296C15.0705 5.08426 15.4989 5.29308 15.9713 5.33132C16.9484 5.41072 17.8096 4.71552 17.8926 3.81151C17.9767 2.89459 17.2514 2.08434 16.2756 2.00526C16.2238 2.00091 16.1718 1.99897 16.1203 1.99897Z" fill="#0368D9"/>
</svg>
