<svg width="29" height="27" viewBox="0 0 29 27" fill="none" xmlns="http://www.w3.org/2000/svg">
<path fill-rule="evenodd" clip-rule="evenodd" d="M8.65405 1.48803L11.6209 3.40691C11.6878 3.45016 11.764 3.47082 11.8395 3.47082C11.9623 3.47082 12.0831 3.41595 12.1579 3.31364C12.2789 3.1484 12.2343 2.92231 12.0587 2.8087L9.09191 0.889818C8.91598 0.776211 8.67551 0.817845 8.55484 0.983091C8.43384 1.14834 8.47846 1.37442 8.65405 1.48803ZM7.8914 2.97119L10.8586 4.89008C10.9255 4.93332 11.0017 4.95414 11.0772 4.95414C11.1999 4.95414 11.3208 4.89911 11.3956 4.7968C11.5166 4.63156 11.472 4.40547 11.2964 4.29187L8.32926 2.37282C8.1535 2.25905 7.91303 2.30117 7.79219 2.46625C7.67119 2.6315 7.71581 2.85742 7.8914 2.97119ZM27.0943 16.3529C25.0498 13.2192 22.9971 9.90737 22.482 9.07324C21.7005 10.5395 19.1261 14.8665 16.237 15.1238C13.0057 15.6034 10.6438 14.1289 9.8604 12.9104C9.10569 11.7367 10.4359 10.4157 10.4359 10.4157L12.6118 7.11836L13.0847 6.35136C12.0057 5.96535 10.9831 5.76686 10.0375 5.76686C6.17493 5.76686 4.32052 9.02999 3.77213 11.0772C1.87464 11.7219 1.03909 12.3878 0.944689 12.4666C0.773734 12.6084 0.678474 12.8142 0.684138 13.0285C0.689974 13.243 0.796048 13.4439 0.974211 13.5778C4.02925 15.8732 17.7859 24.9538 18.5171 25.4361C19.6613 26.2467 20.9755 26.675 22.3183 26.675C24.6383 26.675 27.0001 25.3446 28.0615 23.4398C29.5818 20.7118 27.8916 17.5749 27.0943 16.3529ZM24.0539 19.8789C23.8895 19.8347 23.7201 19.8121 23.5501 19.8121C22.7391 19.8121 22.0167 20.3251 21.7936 21.0595C21.5169 21.9701 22.08 22.9232 23.0495 23.1841C23.2136 23.2282 23.3826 23.2504 23.5519 23.2504H23.552C24.3637 23.2504 25.0863 22.7376 25.3096 22.0029C25.4435 21.5618 25.3867 21.0979 25.1495 20.6966C24.9123 20.2951 24.523 20.0046 24.0539 19.8789ZM19.4215 10.9305C19.7423 11.5471 19.525 11.9282 19.283 12.1393C19.0319 12.3327 18.7027 12.4262 18.3912 12.3856C18.028 12.3383 17.7255 12.1175 17.5165 11.7469C16.6098 10.1395 15.5834 8.38635 15.569 8.36171L15.5689 8.36169L15.5689 8.36158L15.1645 8.57104C15.1736 8.58654 15.9825 9.96805 16.7978 11.4019L14.9523 14.04C12.6879 13.8636 10.9279 12.6254 10.7607 12.1505C11.0141 11.7372 11.2311 11.3816 11.4215 11.0696C12.239 9.73 12.5656 9.19487 13.1688 8.35771L13.212 8.29776L13.2122 8.29742C13.3296 8.13426 13.4519 7.9643 13.5813 7.78322C14.2869 6.81966 15.0727 6.30133 15.8006 6.33086C16.397 6.35168 16.9569 6.7372 17.3371 7.38866L17.3439 7.39983L17.349 7.40835C18.1521 8.70289 18.6445 9.50523 19.4215 10.9305ZM16.1211 2.51839C15.2095 2.51839 14.4342 3.18858 14.3559 4.04418C14.3152 4.48876 14.4608 4.92124 14.7661 5.26238C15.0713 5.60369 15.4997 5.8125 15.9721 5.85075C16.9492 5.93014 17.8104 5.23495 17.8934 4.33094C17.9775 3.41402 17.2522 2.60376 16.2764 2.52469C16.2246 2.52033 16.1726 2.51839 16.1211 2.51839Z" fill="#0368D9"/>
</svg>
