<svg width="29" height="27" viewBox="0 0 29 27" fill="none" xmlns="http://www.w3.org/2000/svg">
<path fill-rule="evenodd" clip-rule="evenodd" d="M8.71857 0.924658L11.6854 2.84354C11.7523 2.88679 11.8285 2.90745 11.904 2.90745C12.0268 2.90745 12.1476 2.85258 12.2224 2.75027C12.3434 2.58502 12.2988 2.35894 12.1232 2.24533L9.15642 0.326448C8.98049 0.212842 8.74002 0.254476 8.61936 0.419722C8.49835 0.584968 8.54298 0.811051 8.71857 0.924658ZM7.95591 2.40782L10.9231 4.32671C10.99 4.36996 11.0662 4.39077 11.1417 4.39077C11.2645 4.39077 11.3853 4.33574 11.4601 4.23343C11.5811 4.06819 11.5365 3.8421 11.3609 3.7285L8.39377 1.80945C8.21801 1.69568 7.97754 1.7378 7.85671 1.90288C7.7357 2.06813 7.78033 2.29405 7.95591 2.40782ZM27.1589 15.7896C25.1143 12.6559 23.0616 9.344 22.5465 8.50987C21.765 9.9761 19.1906 14.3032 16.3015 14.5604C13.0702 15.04 10.7083 13.5655 9.92491 12.347C9.17021 11.1733 10.5004 9.85233 10.5004 9.85233L12.6763 6.55499L13.1492 5.78799C12.0703 5.40198 11.0476 5.2035 10.102 5.2035C6.23944 5.2035 4.38503 8.46662 3.83664 10.5138C1.93915 11.1585 1.10361 11.8245 1.0092 11.9032C0.838249 12.0451 0.742988 12.2508 0.748652 12.4651C0.754488 12.6796 0.860562 12.8805 1.03873 13.0144C4.09376 15.3098 17.8504 24.3904 18.5816 24.8728C19.7258 25.6833 21.04 26.1116 22.3828 26.1116C24.7028 26.1116 27.0646 24.7813 28.126 22.8764C29.6463 20.1484 27.9561 17.0115 27.1589 15.7896ZM24.1184 19.3155C23.954 19.2713 23.7846 19.2487 23.6147 19.2487C22.8037 19.2487 22.0812 19.7617 21.8581 20.4961C21.5814 21.4067 22.1446 22.3598 23.114 22.6207C23.2781 22.6648 23.4471 22.6871 23.6164 22.6871H23.6165C24.4282 22.6871 25.1508 22.1742 25.3741 21.4395C25.508 20.9985 25.4512 20.5345 25.214 20.1332C24.9768 19.7317 24.5875 19.4412 24.1184 19.3155ZM19.486 10.3671C19.8068 10.9837 19.5895 11.3649 19.3475 11.576C19.0964 11.7693 18.7672 11.8629 18.4557 11.8222C18.0925 11.7749 17.7901 11.5542 17.581 11.1835C16.6757 9.57856 15.651 7.8283 15.6335 7.79847L15.6334 7.79821L15.229 8.00768C15.2381 8.02317 16.047 9.40468 16.8623 10.8385L15.0169 13.4766C12.7524 13.3002 10.9924 12.062 10.8252 11.5871C11.0786 11.1739 11.2956 10.8182 11.486 10.5063L11.486 10.5062C12.3035 9.16663 12.6301 8.6315 13.2333 7.79434L13.277 7.73362L13.2771 7.73358C13.3944 7.57056 13.5165 7.40075 13.6458 7.21985C14.3514 6.25629 15.1372 5.73796 15.8651 5.76749C16.4616 5.78831 17.0215 6.17383 17.4016 6.82529L17.4073 6.83464L17.4135 6.84498C18.2166 8.13952 18.709 8.94186 19.486 10.3671ZM16.1856 1.95502C15.274 1.95502 14.4987 2.62521 14.4204 3.48081C14.3797 3.92539 14.5253 4.35787 14.8306 4.69901C15.1358 5.04032 15.5642 5.24913 16.0366 5.28738C17.0137 5.36677 17.8749 4.67158 17.9579 3.76757C18.042 2.85065 17.3167 2.04039 16.3409 1.96132C16.2891 1.95696 16.2371 1.95502 16.1856 1.95502Z" fill="#0368D9"/>
</svg>
