<svg width="29" height="27" viewBox="0 0 29 27" fill="none" xmlns="http://www.w3.org/2000/svg">
<path fill-rule="evenodd" clip-rule="evenodd" d="M8.76233 1.07506L11.7291 2.99394C11.7961 3.03719 11.8723 3.05785 11.9478 3.05785C12.0705 3.05785 12.1914 3.00298 12.2662 2.90067C12.3872 2.73543 12.3426 2.50934 12.167 2.39574L9.20018 0.47685C9.02425 0.363244 8.78378 0.404878 8.66312 0.570124C8.54211 0.73537 8.58674 0.961453 8.76233 1.07506ZM7.99968 2.55822L10.9668 4.47711C11.0338 4.52036 11.11 4.54117 11.1855 4.54117C11.3082 4.54117 11.4291 4.48615 11.5039 4.38384C11.6249 4.21859 11.5803 3.99251 11.4047 3.8789L8.43753 1.95985C8.26177 1.84608 8.0213 1.8882 7.90047 2.05329C7.77946 2.21853 7.82409 2.44445 7.99968 2.55822ZM27.2026 15.94C25.158 12.8063 23.1054 9.4944 22.5903 8.66027C21.8088 10.1265 19.2344 14.4536 16.3453 14.7108C13.114 15.1904 10.752 13.7159 9.96867 12.4974C9.21397 11.3237 10.5442 10.0027 10.5442 10.0027L12.7201 6.7054L13.1929 5.93839C12.114 5.55239 11.0914 5.3539 10.1458 5.3539C6.2832 5.3539 4.4288 8.61702 3.8804 10.6642C1.98291 11.3089 1.14737 11.9749 1.05296 12.0536C0.882011 12.1955 0.78675 12.4012 0.792414 12.6155C0.79825 12.83 0.904324 13.0309 1.08249 13.1648C4.13752 15.4602 17.8942 24.5408 18.6254 25.0232C19.7695 25.8337 21.0838 26.262 22.4265 26.262C24.7466 26.262 27.1084 24.9317 28.1698 23.0268C29.69 20.2988 27.9999 17.1619 27.2026 15.94ZM24.1622 19.4659C23.9978 19.4217 23.8283 19.3991 23.6584 19.3991C22.8474 19.3991 22.125 19.9121 21.9018 20.6465C21.6252 21.5571 22.1883 22.5102 23.1577 22.7711C23.3218 22.8152 23.4909 22.8375 23.6601 22.8375H23.6603C24.472 22.8375 25.1946 22.3246 25.4179 21.5899C25.5518 21.1489 25.495 20.6849 25.2578 20.2836C25.0206 19.8821 24.6313 19.5916 24.1622 19.4659ZM19.5298 10.5175C19.8506 11.1341 19.6333 11.5153 19.3913 11.7264C19.1402 11.9197 18.811 12.0133 18.4994 11.9726C18.1362 11.9253 17.8338 11.7046 17.6248 11.3339C16.7188 9.72773 15.6932 7.97602 15.6773 7.9488L15.6772 7.94872L15.6772 7.94861L15.2728 8.15807C15.2819 8.17357 16.0908 9.55508 16.9061 10.9889L15.0606 13.627C12.7962 13.4506 11.0362 12.2124 10.869 11.7375C11.1223 11.3243 11.3393 10.9688 11.5297 10.6568L11.5298 10.6566C12.3473 9.31704 12.6739 8.78191 13.2771 7.94474L13.3202 7.88479L13.3205 7.88445C13.4379 7.72129 13.5602 7.55133 13.6896 7.37025C14.3952 6.40669 15.1809 5.88836 15.9089 5.91789C16.5053 5.93871 17.0652 6.32423 17.4454 6.97569L17.4511 6.98505L17.4572 6.99538C18.2603 8.28992 18.7528 9.09226 19.5298 10.5175ZM16.2293 2.10543C15.3178 2.10543 14.5425 2.77561 14.4642 3.63121C14.4235 4.07579 14.5691 4.50827 14.8744 4.84941C15.1796 5.19072 15.608 5.39953 16.0804 5.43778C17.0575 5.51717 17.9186 4.82198 18.0017 3.91797C18.0858 3.00105 17.3605 2.19079 16.3847 2.11172C16.3328 2.10736 16.2808 2.10543 16.2293 2.10543Z" fill="#0368D9"/>
</svg>
