<svg width="29" height="27" viewBox="0 0 29 27" fill="none" xmlns="http://www.w3.org/2000/svg">
<path fill-rule="evenodd" clip-rule="evenodd" d="M8.82001 1.17991L11.7868 3.09879C11.8538 3.14204 11.93 3.1627 12.0055 3.1627C12.1282 3.1627 12.249 3.10783 12.3239 3.00552C12.4449 2.84027 12.4003 2.61419 12.2247 2.50058L9.25786 0.581697C9.08193 0.468091 8.84146 0.509725 8.7208 0.674971C8.59979 0.840217 8.64442 1.0663 8.82001 1.17991ZM8.05736 2.66307L11.0245 4.58196C11.0914 4.6252 11.1677 4.64602 11.2432 4.64602C11.3659 4.64602 11.4867 4.59099 11.5616 4.48868C11.6826 4.32344 11.638 4.09735 11.4624 3.98375L8.49521 2.0647C8.31945 1.95093 8.07898 1.99305 7.95815 2.15813C7.83714 2.32338 7.88177 2.5493 8.05736 2.66307ZM27.2603 16.0448C25.2157 12.9111 23.1631 9.59925 22.648 8.76512C21.8665 10.2314 19.292 14.5584 16.403 14.8156C13.1717 15.2952 10.8097 13.8208 10.0264 12.6022C9.27165 11.4286 10.6019 10.1076 10.6019 10.1076L12.7778 6.81024L13.2506 6.04324C12.1717 5.65723 11.1491 5.45874 10.2035 5.45874C6.34088 5.45874 4.48647 8.72187 3.93808 10.769C2.04059 11.4137 1.20505 12.0797 1.11064 12.1585C0.939689 12.3003 0.844428 12.5061 0.850092 12.7204C0.855928 12.9348 0.962002 13.1357 1.14017 13.2697C4.1952 15.5651 17.9519 24.6457 18.6831 25.128C19.8272 25.9386 21.1415 26.3669 22.4842 26.3669C24.8043 26.3669 27.1661 25.0365 28.2275 23.1317C29.7477 20.4037 28.0576 17.2667 27.2603 16.0448ZM24.2199 19.5708C24.0554 19.5265 23.886 19.5039 23.7161 19.5039C22.9051 19.5039 22.1827 20.0169 21.9595 20.7514C21.6828 21.662 22.246 22.6151 23.2154 22.876C23.3795 22.9201 23.5486 22.9423 23.7178 22.9423H23.718C24.5297 22.9423 25.2523 22.4295 25.4756 21.6947C25.6095 21.2537 25.5527 20.7898 25.3154 20.3884C25.0782 19.9869 24.689 19.6965 24.2199 19.5708ZM19.5875 10.6224C19.9083 11.239 19.691 11.6201 19.449 11.8312C19.1979 12.0245 18.8686 12.1181 18.5571 12.0775C18.1939 12.0302 17.8915 11.8094 17.6824 11.4387C16.7772 9.83381 15.7524 8.08355 15.735 8.05372L15.7348 8.05346L15.3304 8.26292C15.3395 8.27842 16.1485 9.65993 16.9638 11.0937L15.1183 13.7319C12.8538 13.5555 11.0938 12.3173 10.9267 11.8423C11.18 11.4291 11.397 11.0735 11.5874 10.7615L11.5875 10.7615C12.405 9.42188 12.7316 8.88675 13.3348 8.04959L13.3785 7.98887L13.3785 7.98883C13.4958 7.82581 13.618 7.656 13.7472 7.4751C14.4528 6.51154 15.2386 5.99321 15.9665 6.02274C16.563 6.04356 17.1229 6.42908 17.5031 7.08054L17.5087 7.08989L17.5149 7.10023C18.318 8.39477 18.8105 9.19711 19.5875 10.6224ZM16.287 2.21027C15.3754 2.21027 14.6001 2.88046 14.5219 3.73606C14.4812 4.18064 14.6267 4.61312 14.9321 4.95426C15.2373 5.29557 15.6657 5.50438 16.138 5.54263C17.1152 5.62202 17.9763 4.92683 18.0594 4.02282C18.1435 3.10589 17.4181 2.29564 16.4424 2.21657C16.3905 2.21221 16.3385 2.21027 16.287 2.21027Z" fill="#0368D9"/>
</svg>
