<svg width="64" height="66" viewBox="0 0 64 66" fill="none" xmlns="http://www.w3.org/2000/svg">
<path d="M25.8158 57.6054L25.824 57.6069L25.8322 57.6083L26.4922 57.7197L30.8118 63.6809C31.3747 64.4577 32.5322 64.4578 33.0952 63.681L37.4976 57.6071L37.6223 57.5838C51.5849 54.9808 61.9005 43.4947 61.9005 29.9286C61.9005 14.2683 48.2743 1.72565 31.6606 1.72565C15.0469 1.72565 1.42065 14.2683 1.42065 29.9286C1.42065 43.5517 11.8174 55.0511 25.8158 57.6054ZM26.8673 57.783C26.8666 57.7829 26.8659 57.7827 26.8652 57.7826L26.8673 57.783L27.022 56.8659L26.8673 57.783Z" fill="url(#paint0_linear_334_5864)" stroke="#D13C27" stroke-width="2.5"/>
<defs>
<linearGradient id="paint0_linear_334_5864" x1="70.9448" y1="54.6832" x2="46.7195" y2="21.9172" gradientUnits="userSpaceOnUse">
<stop stop-color="#DEDCDC"/>
<stop offset="1" stop-color="white"/>
</linearGradient>
</defs>
</svg>
