<svg width="64" height="66" viewBox="0 0 64 66" fill="none" xmlns="http://www.w3.org/2000/svg">
<path d="M25.8991 57.7343L25.9073 57.7358L25.9155 57.7372L26.5754 57.8485L30.8951 63.8097C31.458 64.5866 32.6155 64.5866 33.1785 63.8099L37.5809 57.7359L37.7056 57.7127C51.6681 55.1096 61.9838 43.6235 61.9838 30.0575C61.9838 14.3972 48.3576 1.85449 31.7438 1.85449C15.1301 1.85449 1.50391 14.3972 1.50391 30.0575C1.50391 43.6805 11.9007 55.1799 25.8991 57.7343ZM26.9506 57.9118C26.9499 57.9117 26.9491 57.9116 26.9484 57.9115L26.9506 57.9118L27.1053 56.9948L26.9506 57.9118Z" fill="url(#paint0_linear_330_2403)" stroke="#0070F0" stroke-width="2.5"/>
<defs>
<linearGradient id="paint0_linear_330_2403" x1="71.0281" y1="54.812" x2="46.8027" y2="22.0461" gradientUnits="userSpaceOnUse">
<stop stop-color="#DEDCDC"/>
<stop offset="1" stop-color="white"/>
</linearGradient>
</defs>
</svg>
